<svg width="587" height="198" viewBox="0 0 587 198" fill="none" xmlns="http://www.w3.org/2000/svg">
<path d="M12.116 4.496V41H3.224V4.496H12.116ZM33.1199 19.368H28.3359V41H19.4439V19.368H16.2199V11.984H19.4439V11.152C19.4439 7.58133 20.4666 4.87733 22.5119 3.04C24.5573 1.168 27.5559 0.231998 31.5079 0.231998C32.1666 0.231998 32.6519 0.249331 32.9639 0.283997V7.824C31.2653 7.72 30.0693 7.96267 29.3759 8.552C28.6826 9.14133 28.3359 10.1987 28.3359 11.724V11.984H33.1199V19.368ZM79.6218 4.496L66.9858 28.936V41H58.0938V28.936L45.4578 4.496H55.5458L62.6178 19.784L69.6378 4.496H79.6218ZM96.4125 41.416C93.5698 41.416 91.0045 40.8093 88.7165 39.596C86.4631 38.3827 84.6778 36.6493 83.3605 34.396C82.0778 32.1427 81.4365 29.508 81.4365 26.492C81.4365 23.5107 82.0951 20.8933 83.4125 18.64C84.7298 16.352 86.5325 14.6013 88.8205 13.388C91.1085 12.1747 93.6738 11.568 96.5165 11.568C99.3591 11.568 101.924 12.1747 104.212 13.388C106.5 14.6013 108.303 16.352 109.62 18.64C110.938 20.8933 111.596 23.5107 111.596 26.492C111.596 29.4733 110.92 32.108 109.568 34.396C108.251 36.6493 106.431 38.3827 104.108 39.596C101.82 40.8093 99.2551 41.416 96.4125 41.416ZM96.4125 33.72C98.1111 33.72 99.5498 33.096 100.728 31.848C101.942 30.6 102.548 28.8147 102.548 26.492C102.548 24.1693 101.959 22.384 100.78 21.136C99.6365 19.888 98.2151 19.264 96.5165 19.264C94.7831 19.264 93.3445 19.888 92.2005 21.136C91.0565 22.3493 90.4845 24.1347 90.4845 26.492C90.4845 28.8147 91.0391 30.6 92.1485 31.848C93.2925 33.096 94.7138 33.72 96.4125 33.72ZM144.966 11.984V41H136.074V37.048C135.173 38.3307 133.942 39.3707 132.382 40.168C130.857 40.9307 129.158 41.312 127.286 41.312C125.067 41.312 123.109 40.8267 121.41 39.856C119.711 38.8507 118.394 37.412 117.458 35.54C116.522 33.668 116.054 31.4667 116.054 28.936V11.984H124.894V27.74C124.894 29.6813 125.397 31.1893 126.402 32.264C127.407 33.3387 128.759 33.876 130.458 33.876C132.191 33.876 133.561 33.3387 134.566 32.264C135.571 31.1893 136.074 29.6813 136.074 27.74V11.984H144.966ZM171.264 34.136H182.912V41H162.372V4.496H171.264V34.136ZM200.362 41.416C197.519 41.416 194.954 40.8093 192.666 39.596C190.412 38.3827 188.627 36.6493 187.31 34.396C186.027 32.1427 185.386 29.508 185.386 26.492C185.386 23.5107 186.044 20.8933 187.362 18.64C188.679 16.352 190.482 14.6013 192.77 13.388C195.058 12.1747 197.623 11.568 200.466 11.568C203.308 11.568 205.874 12.1747 208.162 13.388C210.45 14.6013 212.252 16.352 213.57 18.64C214.887 20.8933 215.546 23.5107 215.546 26.492C215.546 29.4733 214.87 32.108 213.518 34.396C212.2 36.6493 210.38 38.3827 208.058 39.596C205.77 40.8093 203.204 41.416 200.362 41.416ZM200.362 33.72C202.06 33.72 203.499 33.096 204.678 31.848C205.891 30.6 206.498 28.8147 206.498 26.492C206.498 24.1693 205.908 22.384 204.73 21.136C203.586 19.888 202.164 19.264 200.466 19.264C198.732 19.264 197.294 19.888 196.15 21.136C195.006 22.3493 194.434 24.1347 194.434 26.492C194.434 28.8147 194.988 30.6 196.098 31.848C197.242 33.096 198.663 33.72 200.362 33.72ZM233.315 32.68L239.607 11.984H249.071L238.775 41H227.803L217.507 11.984H227.023L233.315 32.68ZM280.166 26.024C280.166 26.856 280.114 27.7227 280.01 28.624H259.886C260.025 30.4267 260.597 31.8133 261.602 32.784C262.642 33.72 263.907 34.188 265.398 34.188C267.617 34.188 269.159 33.252 270.026 31.38H279.49C279.005 33.2867 278.121 35.0027 276.838 36.528C275.59 38.0533 274.013 39.2493 272.106 40.116C270.199 40.9827 268.067 41.416 265.71 41.416C262.867 41.416 260.337 40.8093 258.118 39.596C255.899 38.3827 254.166 36.6493 252.918 34.396C251.67 32.1427 251.046 29.508 251.046 26.492C251.046 23.476 251.653 20.8413 252.866 18.588C254.114 16.3347 255.847 14.6013 258.066 13.388C260.285 12.1747 262.833 11.568 265.71 11.568C268.518 11.568 271.014 12.1573 273.198 13.336C275.382 14.5147 277.081 16.196 278.294 18.38C279.542 20.564 280.166 23.112 280.166 26.024ZM271.066 23.684C271.066 22.1587 270.546 20.9453 269.506 20.044C268.466 19.1427 267.166 18.692 265.606 18.692C264.115 18.692 262.85 19.1253 261.81 19.992C260.805 20.8587 260.181 22.0893 259.938 23.684H271.066ZM320.108 16.04C319.45 14.8267 318.496 13.908 317.248 13.284C316.035 12.6253 314.596 12.296 312.932 12.296C310.055 12.296 307.75 13.2493 306.016 15.156C304.283 17.028 303.416 19.5413 303.416 22.696C303.416 26.0587 304.318 28.6933 306.12 30.6C307.958 32.472 310.471 33.408 313.66 33.408C315.844 33.408 317.682 32.8533 319.172 31.744C320.698 30.6347 321.807 29.04 322.5 26.96H311.216V20.408H330.56V28.676C329.902 30.8947 328.775 32.9573 327.18 34.864C325.62 36.7707 323.627 38.3133 321.2 39.492C318.774 40.6707 316.035 41.26 312.984 41.26C309.379 41.26 306.155 40.48 303.312 38.92C300.504 37.3253 298.303 35.124 296.708 32.316C295.148 29.508 294.368 26.3013 294.368 22.696C294.368 19.0907 295.148 15.884 296.708 13.076C298.303 10.2333 300.504 8.032 303.312 6.472C306.12 4.87733 309.327 4.08 312.932 4.08C317.3 4.08 320.975 5.13733 323.956 7.252C326.972 9.36667 328.966 12.296 329.936 16.04H320.108ZM333.718 26.44C333.718 23.4587 334.272 20.8413 335.382 18.588C336.526 16.3347 338.068 14.6013 340.01 13.388C341.951 12.1747 344.118 11.568 346.51 11.568C348.555 11.568 350.34 11.984 351.866 12.816C353.426 13.648 354.622 14.74 355.454 16.092V11.984H364.346V41H355.454V36.892C354.587 38.244 353.374 39.336 351.814 40.168C350.288 41 348.503 41.416 346.458 41.416C344.1 41.416 341.951 40.8093 340.01 39.596C338.068 38.348 336.526 36.5973 335.382 34.344C334.272 32.056 333.718 29.4213 333.718 26.44ZM355.454 26.492C355.454 24.2733 354.83 22.5227 353.582 21.24C352.368 19.9573 350.878 19.316 349.11 19.316C347.342 19.316 345.834 19.9573 344.586 21.24C343.372 22.488 342.766 24.2213 342.766 26.44C342.766 28.6587 343.372 30.4267 344.586 31.744C345.834 33.0267 347.342 33.668 349.11 33.668C350.878 33.668 352.368 33.0267 353.582 31.744C354.83 30.4613 355.454 28.7107 355.454 26.492ZM379.671 16.82C380.711 15.2253 382.011 13.9773 383.571 13.076C385.131 12.14 386.864 11.672 388.771 11.672V21.084H386.327C384.108 21.084 382.444 21.5693 381.335 22.54C380.225 23.476 379.671 25.14 379.671 27.532V41H370.779V11.984H379.671V16.82ZM391.253 26.44C391.253 23.4587 391.808 20.8413 392.917 18.588C394.061 16.3347 395.604 14.6013 397.545 13.388C399.486 12.1747 401.653 11.568 404.045 11.568C405.952 11.568 407.685 11.9667 409.245 12.764C410.84 13.5613 412.088 14.636 412.989 15.988V2.52H421.881V41H412.989V36.84C412.157 38.2267 410.961 39.336 409.401 40.168C407.876 41 406.09 41.416 404.045 41.416C401.653 41.416 399.486 40.8093 397.545 39.596C395.604 38.348 394.061 36.5973 392.917 34.344C391.808 32.056 391.253 29.4213 391.253 26.44ZM412.989 26.492C412.989 24.2733 412.365 22.5227 411.117 21.24C409.904 19.9573 408.413 19.316 406.645 19.316C404.877 19.316 403.369 19.9573 402.121 21.24C400.908 22.488 400.301 24.2213 400.301 26.44C400.301 28.6587 400.908 30.4267 402.121 31.744C403.369 33.0267 404.877 33.668 406.645 33.668C408.413 33.668 409.904 33.0267 411.117 31.744C412.365 30.4613 412.989 28.7107 412.989 26.492ZM455.666 26.024C455.666 26.856 455.614 27.7227 455.51 28.624H435.386C435.525 30.4267 436.097 31.8133 437.102 32.784C438.142 33.72 439.407 34.188 440.898 34.188C443.117 34.188 444.659 33.252 445.526 31.38H454.99C454.505 33.2867 453.621 35.0027 452.338 36.528C451.09 38.0533 449.513 39.2493 447.606 40.116C445.699 40.9827 443.567 41.416 441.21 41.416C438.367 41.416 435.837 40.8093 433.618 39.596C431.399 38.3827 429.666 36.6493 428.418 34.396C427.17 32.1427 426.546 29.508 426.546 26.492C426.546 23.476 427.153 20.8413 428.366 18.588C429.614 16.3347 431.347 14.6013 433.566 13.388C435.785 12.1747 438.333 11.568 441.21 11.568C444.018 11.568 446.514 12.1573 448.698 13.336C450.882 14.5147 452.581 16.196 453.794 18.38C455.042 20.564 455.666 23.112 455.666 26.024ZM446.566 23.684C446.566 22.1587 446.046 20.9453 445.006 20.044C443.966 19.1427 442.666 18.692 441.106 18.692C439.615 18.692 438.35 19.1253 437.31 19.992C436.305 20.8587 435.681 22.0893 435.438 23.684H446.566ZM478.037 11.672C481.434 11.672 484.138 12.7813 486.149 15C488.194 17.184 489.217 20.2 489.217 24.048V41H480.377V25.244C480.377 23.3027 479.874 21.7947 478.869 20.72C477.863 19.6453 476.511 19.108 474.813 19.108C473.114 19.108 471.762 19.6453 470.757 20.72C469.751 21.7947 469.249 23.3027 469.249 25.244V41H460.357V11.984H469.249V15.832C470.15 14.5493 471.363 13.544 472.889 12.816C474.414 12.0533 476.13 11.672 478.037 11.672ZM34.528 82.496L21.892 106.936V119H13V106.936L0.364 82.496H10.452L17.524 97.784L24.544 82.496H34.528ZM51.3187 119.416C48.4761 119.416 45.9107 118.809 43.6227 117.596C41.3694 116.383 39.5841 114.649 38.2667 112.396C36.9841 110.143 36.3427 107.508 36.3427 104.492C36.3427 101.511 37.0014 98.8933 38.3187 96.64C39.6361 94.352 41.4387 92.6013 43.7267 91.388C46.0147 90.1747 48.5801 89.568 51.4227 89.568C54.2654 89.568 56.8307 90.1747 59.1187 91.388C61.4067 92.6013 63.2094 94.352 64.5267 96.64C65.8441 98.8933 66.5027 101.511 66.5027 104.492C66.5027 107.473 65.8267 110.108 64.4747 112.396C63.1574 114.649 61.3374 116.383 59.0147 117.596C56.7267 118.809 54.1614 119.416 51.3187 119.416ZM51.3187 111.72C53.0174 111.72 54.4561 111.096 55.6347 109.848C56.8481 108.6 57.4547 106.815 57.4547 104.492C57.4547 102.169 56.8654 100.384 55.6867 99.136C54.5427 97.888 53.1214 97.264 51.4227 97.264C49.6894 97.264 48.2507 97.888 47.1067 99.136C45.9627 100.349 45.3907 102.135 45.3907 104.492C45.3907 106.815 45.9454 108.6 47.0547 109.848C48.1987 111.096 49.6201 111.72 51.3187 111.72ZM99.8721 89.984V119H90.9801V115.048C90.0788 116.331 88.8481 117.371 87.2881 118.168C85.7628 118.931 84.0641 119.312 82.1921 119.312C79.9734 119.312 78.0148 118.827 76.3161 117.856C74.6174 116.851 73.3001 115.412 72.3641 113.54C71.4281 111.668 70.9601 109.467 70.9601 106.936V89.984H79.8001V105.74C79.8001 107.681 80.3028 109.189 81.3081 110.264C82.3134 111.339 83.6654 111.876 85.3641 111.876C87.0974 111.876 88.4668 111.339 89.4721 110.264C90.4774 109.189 90.9801 107.681 90.9801 105.74V89.984H99.8721ZM108.287 82.496H117.387L111.563 96.432H105.583L108.287 82.496ZM131.503 80.52V119H122.611V80.52H131.503ZM146.839 80.52V119H137.947V80.52H146.839ZM173.194 112.136H184.842V119H164.302V82.496H173.194V112.136ZM202.291 119.416C199.449 119.416 196.883 118.809 194.595 117.596C192.342 116.383 190.557 114.649 189.239 112.396C187.957 110.143 187.315 107.508 187.315 104.492C187.315 101.511 187.974 98.8933 189.291 96.64C190.609 94.352 192.411 92.6013 194.699 91.388C196.987 90.1747 199.553 89.568 202.395 89.568C205.238 89.568 207.803 90.1747 210.091 91.388C212.379 92.6013 214.182 94.352 215.499 96.64C216.817 98.8933 217.475 101.511 217.475 104.492C217.475 107.473 216.799 110.108 215.447 112.396C214.13 114.649 212.31 116.383 209.987 117.596C207.699 118.809 205.134 119.416 202.291 119.416ZM202.291 111.72C203.99 111.72 205.429 111.096 206.607 109.848C207.821 108.6 208.427 106.815 208.427 104.492C208.427 102.169 207.838 100.384 206.659 99.136C205.515 97.888 204.094 97.264 202.395 97.264C200.662 97.264 199.223 97.888 198.079 99.136C196.935 100.349 196.363 102.135 196.363 104.492C196.363 106.815 196.918 108.6 198.027 109.848C199.171 111.096 200.593 111.72 202.291 111.72ZM235.245 110.68L241.537 89.984H251.001L240.705 119H229.733L219.437 89.984H228.953L235.245 110.68ZM282.096 104.024C282.096 104.856 282.044 105.723 281.94 106.624H261.816C261.954 108.427 262.526 109.813 263.532 110.784C264.572 111.72 265.837 112.188 267.328 112.188C269.546 112.188 271.089 111.252 271.956 109.38H281.42C280.934 111.287 280.05 113.003 278.768 114.528C277.52 116.053 275.942 117.249 274.036 118.116C272.129 118.983 269.997 119.416 267.64 119.416C264.797 119.416 262.266 118.809 260.048 117.596C257.829 116.383 256.096 114.649 254.848 112.396C253.6 110.143 252.976 107.508 252.976 104.492C252.976 101.476 253.582 98.8413 254.796 96.588C256.044 94.3347 257.777 92.6013 259.996 91.388C262.214 90.1747 264.762 89.568 267.64 89.568C270.448 89.568 272.944 90.1573 275.128 91.336C277.312 92.5147 279.01 94.196 280.224 96.38C281.472 98.564 282.096 101.112 282.096 104.024ZM272.996 101.684C272.996 100.159 272.476 98.9453 271.436 98.044C270.396 97.1427 269.096 96.692 267.536 96.692C266.045 96.692 264.78 97.1253 263.74 97.992C262.734 98.8587 262.11 100.089 261.868 101.684H272.996ZM311.014 119.364C308.345 119.364 305.953 118.931 303.838 118.064C301.723 117.197 300.025 115.915 298.742 114.216C297.494 112.517 296.835 110.472 296.766 108.08H306.23C306.369 109.432 306.837 110.472 307.634 111.2C308.431 111.893 309.471 112.24 310.754 112.24C312.071 112.24 313.111 111.945 313.874 111.356C314.637 110.732 315.018 109.883 315.018 108.808C315.018 107.907 314.706 107.161 314.082 106.572C313.493 105.983 312.747 105.497 311.846 105.116C310.979 104.735 309.731 104.301 308.102 103.816C305.745 103.088 303.821 102.36 302.33 101.632C300.839 100.904 299.557 99.8293 298.482 98.408C297.407 96.9867 296.87 95.132 296.87 92.844C296.87 89.4467 298.101 86.7947 300.562 84.888C303.023 82.9467 306.23 81.976 310.182 81.976C314.203 81.976 317.445 82.9467 319.906 84.888C322.367 86.7947 323.685 89.464 323.858 92.896H314.238C314.169 91.7173 313.735 90.7987 312.938 90.14C312.141 89.4467 311.118 89.1 309.87 89.1C308.795 89.1 307.929 89.3947 307.27 89.984C306.611 90.5387 306.282 91.3533 306.282 92.428C306.282 93.6067 306.837 94.5253 307.946 95.184C309.055 95.8427 310.789 96.5533 313.146 97.316C315.503 98.1133 317.41 98.876 318.866 99.604C320.357 100.332 321.639 101.389 322.714 102.776C323.789 104.163 324.326 105.948 324.326 108.132C324.326 110.212 323.789 112.101 322.714 113.8C321.674 115.499 320.149 116.851 318.138 117.856C316.127 118.861 313.753 119.364 311.014 119.364ZM338.69 94.092C339.557 92.74 340.753 91.648 342.278 90.816C343.804 89.984 345.589 89.568 347.634 89.568C350.026 89.568 352.193 90.1747 354.134 91.388C356.076 92.6013 357.601 94.3347 358.71 96.588C359.854 98.8413 360.426 101.459 360.426 104.44C360.426 107.421 359.854 110.056 358.71 112.344C357.601 114.597 356.076 116.348 354.134 117.596C352.193 118.809 350.026 119.416 347.634 119.416C345.624 119.416 343.838 119 342.278 118.168C340.753 117.336 339.557 116.261 338.69 114.944V132.832H329.798V89.984H338.69V94.092ZM351.378 104.44C351.378 102.221 350.754 100.488 349.506 99.24C348.293 97.9573 346.785 97.316 344.982 97.316C343.214 97.316 341.706 97.9573 340.458 99.24C339.245 100.523 338.638 102.273 338.638 104.492C338.638 106.711 339.245 108.461 340.458 109.744C341.706 111.027 343.214 111.668 344.982 111.668C346.75 111.668 348.258 111.027 349.506 109.744C350.754 108.427 351.378 106.659 351.378 104.44ZM373.983 94.82C375.023 93.2253 376.323 91.9773 377.883 91.076C379.443 90.14 381.177 89.672 383.083 89.672V99.084H380.639C378.421 99.084 376.757 99.5693 375.647 100.54C374.538 101.476 373.983 103.14 373.983 105.532V119H365.091V89.984H373.983V94.82ZM391.805 86.968C390.245 86.968 388.963 86.5173 387.957 85.616C386.987 84.68 386.501 83.536 386.501 82.184C386.501 80.7973 386.987 79.6533 387.957 78.752C388.963 77.816 390.245 77.348 391.805 77.348C393.331 77.348 394.579 77.816 395.549 78.752C396.555 79.6533 397.057 80.7973 397.057 82.184C397.057 83.536 396.555 84.68 395.549 85.616C394.579 86.5173 393.331 86.968 391.805 86.968ZM396.225 89.984V119H387.333V89.984H396.225ZM420.349 89.672C423.747 89.672 426.451 90.7813 428.461 93C430.507 95.184 431.529 98.2 431.529 102.048V119H422.689V103.244C422.689 101.303 422.187 99.7947 421.181 98.72C420.176 97.6453 418.824 97.108 417.125 97.108C415.427 97.108 414.075 97.6453 413.069 98.72C412.064 99.7947 411.561 101.303 411.561 103.244V119H402.669V89.984H411.561V93.832C412.463 92.5493 413.676 91.544 415.201 90.816C416.727 90.0533 418.443 89.672 420.349 89.672ZM448.732 89.568C450.778 89.568 452.563 89.984 454.088 90.816C455.648 91.648 456.844 92.74 457.676 94.092V89.984H466.568V118.948C466.568 121.617 466.031 124.027 464.956 126.176C463.916 128.36 462.304 130.093 460.12 131.376C457.971 132.659 455.284 133.3 452.06 133.3C447.762 133.3 444.278 132.277 441.608 130.232C438.939 128.221 437.414 125.483 437.032 122.016H445.82C446.098 123.125 446.756 123.992 447.796 124.616C448.836 125.275 450.119 125.604 451.644 125.604C453.482 125.604 454.938 125.067 456.012 123.992C457.122 122.952 457.676 121.271 457.676 118.948V114.84C456.81 116.192 455.614 117.301 454.088 118.168C452.563 119 450.778 119.416 448.732 119.416C446.34 119.416 444.174 118.809 442.232 117.596C440.291 116.348 438.748 114.597 437.604 112.344C436.495 110.056 435.94 107.421 435.94 104.44C435.94 101.459 436.495 98.8413 437.604 96.588C438.748 94.3347 440.291 92.6013 442.232 91.388C444.174 90.1747 446.34 89.568 448.732 89.568ZM457.676 104.492C457.676 102.273 457.052 100.523 455.804 99.24C454.591 97.9573 453.1 97.316 451.332 97.316C449.564 97.316 448.056 97.9573 446.808 99.24C445.595 100.488 444.988 102.221 444.988 104.44C444.988 106.659 445.595 108.427 446.808 109.744C448.056 111.027 449.564 111.668 451.332 111.668C453.1 111.668 454.591 111.027 455.804 109.744C457.052 108.461 457.676 106.711 457.676 104.492ZM506.745 112.552H493.121L490.937 119H481.629L494.837 82.496H505.133L518.341 119H508.929L506.745 112.552ZM504.457 105.688L499.933 92.324L495.461 105.688H504.457ZM540.041 89.672C543.438 89.672 546.142 90.7813 548.153 93C550.198 95.184 551.221 98.2 551.221 102.048V119H542.381V103.244C542.381 101.303 541.878 99.7947 540.873 98.72C539.867 97.6453 538.515 97.108 536.817 97.108C535.118 97.108 533.766 97.6453 532.761 98.72C531.755 99.7947 531.253 101.303 531.253 103.244V119H522.361V89.984H531.253V93.832C532.154 92.5493 533.367 91.544 534.893 90.816C536.418 90.0533 538.134 89.672 540.041 89.672ZM555.632 104.44C555.632 101.459 556.186 98.8413 557.296 96.588C558.44 94.3347 559.982 92.6013 561.924 91.388C563.865 90.1747 566.032 89.568 568.424 89.568C570.33 89.568 572.064 89.9667 573.624 90.764C575.218 91.5613 576.466 92.636 577.368 93.988V80.52H586.26V119H577.368V114.84C576.536 116.227 575.34 117.336 573.78 118.168C572.254 119 570.469 119.416 568.424 119.416C566.032 119.416 563.865 118.809 561.924 117.596C559.982 116.348 558.44 114.597 557.296 112.344C556.186 110.056 555.632 107.421 555.632 104.44ZM577.368 104.492C577.368 102.273 576.744 100.523 575.496 99.24C574.282 97.9573 572.792 97.316 571.024 97.316C569.256 97.316 567.748 97.9573 566.5 99.24C565.286 100.488 564.68 102.221 564.68 104.44C564.68 106.659 565.286 108.427 566.5 109.744C567.748 111.027 569.256 111.668 571.024 111.668C572.792 111.668 574.282 111.027 575.496 109.744C576.744 108.461 577.368 106.711 577.368 104.492ZM20.488 197.364C17.056 197.364 13.9013 196.567 11.024 194.972C8.18133 193.377 5.91067 191.159 4.212 188.316C2.548 185.439 1.716 182.215 1.716 178.644C1.716 175.073 2.548 171.867 4.212 169.024C5.91067 166.181 8.18133 163.963 11.024 162.368C13.9013 160.773 17.056 159.976 20.488 159.976C23.92 159.976 27.0573 160.773 29.9 162.368C32.7773 163.963 35.0307 166.181 36.66 169.024C38.324 171.867 39.156 175.073 39.156 178.644C39.156 182.215 38.324 185.439 36.66 188.316C34.996 191.159 32.7427 193.377 29.9 194.972C27.0573 196.567 23.92 197.364 20.488 197.364ZM20.488 189.252C23.4 189.252 25.7227 188.281 27.456 186.34C29.224 184.399 30.108 181.833 30.108 178.644C30.108 175.42 29.224 172.855 27.456 170.948C25.7227 169.007 23.4 168.036 20.488 168.036C17.5413 168.036 15.184 168.989 13.416 170.896C11.6827 172.803 10.816 175.385 10.816 178.644C10.816 181.868 11.6827 184.451 13.416 186.392C15.184 188.299 17.5413 189.252 20.488 189.252ZM72.7549 167.984V197H63.8629V193.048C62.9616 194.331 61.7309 195.371 60.1709 196.168C58.6456 196.931 56.9469 197.312 55.0749 197.312C52.8562 197.312 50.8976 196.827 49.1989 195.856C47.5002 194.851 46.1829 193.412 45.2469 191.54C44.3109 189.668 43.8429 187.467 43.8429 184.936V167.984H52.6829V183.74C52.6829 185.681 53.1856 187.189 54.1909 188.264C55.1962 189.339 56.5482 189.876 58.2469 189.876C59.9802 189.876 61.3496 189.339 62.3549 188.264C63.3602 187.189 63.8629 185.681 63.8629 183.74V167.984H72.7549ZM88.034 172.82C89.074 171.225 90.374 169.977 91.934 169.076C93.494 168.14 95.2273 167.672 97.134 167.672V177.084H94.69C92.4713 177.084 90.8073 177.569 89.698 178.54C88.5886 179.476 88.034 181.14 88.034 183.532V197H79.142V167.984H88.034V172.82ZM138.664 160.496V167.62H128.992V197H120.1V167.62H110.428V160.496H138.664ZM170.478 182.024C170.478 182.856 170.426 183.723 170.322 184.624H150.198C150.337 186.427 150.909 187.813 151.914 188.784C152.954 189.72 154.22 190.188 155.71 190.188C157.929 190.188 159.472 189.252 160.338 187.38H169.802C169.317 189.287 168.433 191.003 167.15 192.528C165.902 194.053 164.325 195.249 162.418 196.116C160.512 196.983 158.38 197.416 156.022 197.416C153.18 197.416 150.649 196.809 148.43 195.596C146.212 194.383 144.478 192.649 143.23 190.396C141.982 188.143 141.358 185.508 141.358 182.492C141.358 179.476 141.965 176.841 143.178 174.588C144.426 172.335 146.16 170.601 148.378 169.388C150.597 168.175 153.145 167.568 156.022 167.568C158.83 167.568 161.326 168.157 163.51 169.336C165.694 170.515 167.393 172.196 168.606 174.38C169.854 176.564 170.478 179.112 170.478 182.024ZM161.378 179.684C161.378 178.159 160.858 176.945 159.818 176.044C158.778 175.143 157.478 174.692 155.918 174.692C154.428 174.692 153.162 175.125 152.122 175.992C151.117 176.859 150.493 178.089 150.25 179.684H161.378ZM173.401 182.44C173.401 179.459 173.956 176.841 175.065 174.588C176.209 172.335 177.752 170.601 179.693 169.388C181.635 168.175 183.801 167.568 186.193 167.568C188.239 167.568 190.024 167.984 191.549 168.816C193.109 169.648 194.305 170.74 195.137 172.092V167.984H204.029V197H195.137V192.892C194.271 194.244 193.057 195.336 191.497 196.168C189.972 197 188.187 197.416 186.141 197.416C183.784 197.416 181.635 196.809 179.693 195.596C177.752 194.348 176.209 192.597 175.065 190.344C173.956 188.056 173.401 185.421 173.401 182.44ZM195.137 182.492C195.137 180.273 194.513 178.523 193.265 177.24C192.052 175.957 190.561 175.316 188.793 175.316C187.025 175.316 185.517 175.957 184.269 177.24C183.056 178.488 182.449 180.221 182.449 182.44C182.449 184.659 183.056 186.427 184.269 187.744C185.517 189.027 187.025 189.668 188.793 189.668C190.561 189.668 192.052 189.027 193.265 187.744C194.513 186.461 195.137 184.711 195.137 182.492ZM247.486 167.672C251.092 167.672 253.952 168.764 256.066 170.948C258.216 173.132 259.29 176.165 259.29 180.048V197H250.45V181.244C250.45 179.372 249.948 177.933 248.942 176.928C247.972 175.888 246.62 175.368 244.886 175.368C243.153 175.368 241.784 175.888 240.778 176.928C239.808 177.933 239.322 179.372 239.322 181.244V197H230.482V181.244C230.482 179.372 229.98 177.933 228.974 176.928C228.004 175.888 226.652 175.368 224.918 175.368C223.185 175.368 221.816 175.888 220.81 176.928C219.84 177.933 219.354 179.372 219.354 181.244V197H210.462V167.984H219.354V171.624C220.256 170.411 221.434 169.457 222.89 168.764C224.346 168.036 225.993 167.672 227.83 167.672C230.014 167.672 231.956 168.14 233.654 169.076C235.388 170.012 236.74 171.347 237.71 173.08C238.716 171.485 240.085 170.185 241.818 169.18C243.552 168.175 245.441 167.672 247.486 167.672Z" fill="white"/>
</svg>
