<svg width="579" height="140" viewBox="0 0 579 140" fill="none" xmlns="http://www.w3.org/2000/svg">
<path d="M19.56 5.776L15.456 19H12.576L9.912 9.232L7.248 19H4.368L0.24 5.776H3.024L5.784 16.408L8.592 5.776H11.448L14.136 16.36L16.872 5.776H19.56ZM33.7247 12.064C33.7247 12.56 33.6927 13.008 33.6287 13.408H23.5247C23.6047 14.464 23.9967 15.312 24.7007 15.952C25.4047 16.592 26.2687 16.912 27.2927 16.912C28.7647 16.912 29.8047 16.296 30.4127 15.064H33.3647C32.9647 16.28 32.2367 17.28 31.1807 18.064C30.1407 18.832 28.8447 19.216 27.2927 19.216C26.0287 19.216 24.8927 18.936 23.8847 18.376C22.8927 17.8 22.1087 17 21.5327 15.976C20.9727 14.936 20.6927 13.736 20.6927 12.376C20.6927 11.016 20.9647 9.824 21.5087 8.8C22.0687 7.76 22.8447 6.96 23.8367 6.4C24.8447 5.84 25.9967 5.56 27.2927 5.56C28.5407 5.56 29.6527 5.832 30.6287 6.376C31.6047 6.92 32.3647 7.688 32.9087 8.68C33.4527 9.656 33.7247 10.784 33.7247 12.064ZM30.8687 11.2C30.8527 10.192 30.4927 9.384 29.7887 8.776C29.0847 8.168 28.2127 7.864 27.1727 7.864C26.2287 7.864 25.4207 8.168 24.7487 8.776C24.0767 9.368 23.6767 10.176 23.5487 11.2H30.8687ZM39.1532 1.24V19H36.4172V1.24H39.1532ZM41.8333 12.376C41.8333 11.016 42.1053 9.824 42.6493 8.8C43.2093 7.76 43.9773 6.96 44.9533 6.4C45.9293 5.84 47.0493 5.56 48.3133 5.56C49.9133 5.56 51.2333 5.944 52.2733 6.712C53.3293 7.464 54.0413 8.544 54.4093 9.952H51.4573C51.2173 9.296 50.8333 8.784 50.3053 8.416C49.7773 8.048 49.1133 7.864 48.3133 7.864C47.1933 7.864 46.2973 8.264 45.6253 9.064C44.9693 9.848 44.6413 10.952 44.6413 12.376C44.6413 13.8 44.9693 14.912 45.6253 15.712C46.2973 16.512 47.1933 16.912 48.3133 16.912C49.8973 16.912 50.9453 16.216 51.4573 14.824H54.4093C54.0253 16.168 53.3053 17.24 52.2493 18.04C51.1933 18.824 49.8813 19.216 48.3133 19.216C47.0493 19.216 45.9293 18.936 44.9533 18.376C43.9773 17.8 43.2093 17 42.6493 15.976C42.1053 14.936 41.8333 13.736 41.8333 12.376ZM62.8719 19.216C61.6239 19.216 60.4959 18.936 59.4879 18.376C58.4799 17.8 57.6879 17 57.1119 15.976C56.5359 14.936 56.2479 13.736 56.2479 12.376C56.2479 11.032 56.5439 9.84 57.1359 8.8C57.7279 7.76 58.5359 6.96 59.5599 6.4C60.5839 5.84 61.7279 5.56 62.9919 5.56C64.2559 5.56 65.3999 5.84 66.4239 6.4C67.4479 6.96 68.2559 7.76 68.8479 8.8C69.4399 9.84 69.7359 11.032 69.7359 12.376C69.7359 13.72 69.4319 14.912 68.8239 15.952C68.2159 16.992 67.3839 17.8 66.3279 18.376C65.2879 18.936 64.1359 19.216 62.8719 19.216ZM62.8719 16.84C63.5759 16.84 64.2319 16.672 64.8399 16.336C65.4639 16 65.9679 15.496 66.3519 14.824C66.7359 14.152 66.9279 13.336 66.9279 12.376C66.9279 11.416 66.7439 10.608 66.3759 9.952C66.0079 9.28 65.5199 8.776 64.9119 8.44C64.3039 8.104 63.6479 7.936 62.9439 7.936C62.2399 7.936 61.5839 8.104 60.9759 8.44C60.3839 8.776 59.9119 9.28 59.5599 9.952C59.2079 10.608 59.0319 11.416 59.0319 12.376C59.0319 13.8 59.3919 14.904 60.1119 15.688C60.8479 16.456 61.7679 16.84 62.8719 16.84ZM88.4486 5.56C89.4886 5.56 90.4166 5.776 91.2326 6.208C92.0646 6.64 92.7126 7.28 93.1766 8.128C93.6566 8.976 93.8966 10 93.8966 11.2V19H91.1846V11.608C91.1846 10.424 90.8886 9.52 90.2966 8.896C89.7046 8.256 88.8966 7.936 87.8726 7.936C86.8486 7.936 86.0326 8.256 85.4246 8.896C84.8326 9.52 84.5366 10.424 84.5366 11.608V19H81.8246V11.608C81.8246 10.424 81.5286 9.52 80.9366 8.896C80.3446 8.256 79.5366 7.936 78.5126 7.936C77.4886 7.936 76.6726 8.256 76.0646 8.896C75.4726 9.52 75.1766 10.424 75.1766 11.608V19H72.4406V5.776H75.1766V7.288C75.6246 6.744 76.1926 6.32 76.8806 6.016C77.5686 5.712 78.3046 5.56 79.0886 5.56C80.1446 5.56 81.0886 5.784 81.9206 6.232C82.7526 6.68 83.3926 7.328 83.8406 8.176C84.2406 7.376 84.8646 6.744 85.7126 6.28C86.5606 5.8 87.4726 5.56 88.4486 5.56ZM109.498 12.064C109.498 12.56 109.466 13.008 109.402 13.408H99.2981C99.3781 14.464 99.7701 15.312 100.474 15.952C101.178 16.592 102.042 16.912 103.066 16.912C104.538 16.912 105.578 16.296 106.186 15.064H109.138C108.738 16.28 108.01 17.28 106.954 18.064C105.914 18.832 104.618 19.216 103.066 19.216C101.802 19.216 100.666 18.936 99.6581 18.376C98.6661 17.8 97.8821 17 97.3061 15.976C96.7461 14.936 96.4661 13.736 96.4661 12.376C96.4661 11.016 96.7381 9.824 97.2821 8.8C97.8421 7.76 98.6181 6.96 99.6101 6.4C100.618 5.84 101.77 5.56 103.066 5.56C104.314 5.56 105.426 5.832 106.402 6.376C107.378 6.92 108.138 7.688 108.682 8.68C109.226 9.656 109.498 10.784 109.498 12.064ZM106.642 11.2C106.626 10.192 106.266 9.384 105.562 8.776C104.858 8.168 103.986 7.864 102.946 7.864C102.002 7.864 101.194 8.168 100.522 8.776C99.8501 9.368 99.4501 10.176 99.3221 11.2H106.642ZM121.617 8.008V15.328C121.617 15.824 121.729 16.184 121.953 16.408C122.193 16.616 122.593 16.72 123.153 16.72H124.833V19H122.673C121.441 19 120.497 18.712 119.841 18.136C119.185 17.56 118.857 16.624 118.857 15.328V8.008H117.297V5.776H118.857V2.488H121.617V5.776H124.833V8.008H121.617ZM134.195 5.56C135.203 5.56 136.099 5.776 136.883 6.208C137.683 6.64 138.307 7.28 138.755 8.128C139.219 8.976 139.451 10 139.451 11.2V19H136.739V11.608C136.739 10.424 136.443 9.52 135.851 8.896C135.259 8.256 134.451 7.936 133.427 7.936C132.403 7.936 131.587 8.256 130.979 8.896C130.387 9.52 130.091 10.424 130.091 11.608V19H127.355V1.24H130.091V7.312C130.555 6.752 131.139 6.32 131.843 6.016C132.563 5.712 133.347 5.56 134.195 5.56ZM155.061 12.064C155.061 12.56 155.029 13.008 154.965 13.408H144.861C144.941 14.464 145.333 15.312 146.037 15.952C146.741 16.592 147.605 16.912 148.629 16.912C150.101 16.912 151.141 16.296 151.749 15.064H154.701C154.301 16.28 153.573 17.28 152.517 18.064C151.477 18.832 150.181 19.216 148.629 19.216C147.365 19.216 146.229 18.936 145.221 18.376C144.229 17.8 143.445 17 142.869 15.976C142.309 14.936 142.029 13.736 142.029 12.376C142.029 11.016 142.301 9.824 142.845 8.8C143.405 7.76 144.181 6.96 145.173 6.4C146.181 5.84 147.333 5.56 148.629 5.56C149.877 5.56 150.989 5.832 151.965 6.376C152.941 6.92 153.701 7.688 154.245 8.68C154.789 9.656 155.061 10.784 155.061 12.064ZM152.205 11.2C152.189 10.192 151.829 9.384 151.125 8.776C150.421 8.168 149.549 7.864 148.509 7.864C147.565 7.864 146.757 8.168 146.085 8.776C145.413 9.368 145.013 10.176 144.885 11.2H152.205ZM170.66 5.56C171.7 5.56 172.628 5.776 173.444 6.208C174.276 6.64 174.924 7.28 175.388 8.128C175.852 8.976 176.084 10 176.084 11.2V19H173.372V11.608C173.372 10.424 173.076 9.52 172.484 8.896C171.892 8.256 171.084 7.936 170.06 7.936C169.036 7.936 168.22 8.256 167.612 8.896C167.02 9.52 166.724 10.424 166.724 11.608V19H163.988V5.776H166.724V7.288C167.172 6.744 167.74 6.32 168.428 6.016C169.132 5.712 169.876 5.56 170.66 5.56ZM191.693 12.064C191.693 12.56 191.661 13.008 191.597 13.408H181.493C181.573 14.464 181.965 15.312 182.669 15.952C183.373 16.592 184.237 16.912 185.261 16.912C186.733 16.912 187.773 16.296 188.381 15.064H191.333C190.933 16.28 190.205 17.28 189.149 18.064C188.109 18.832 186.813 19.216 185.261 19.216C183.997 19.216 182.861 18.936 181.853 18.376C180.861 17.8 180.077 17 179.501 15.976C178.941 14.936 178.661 13.736 178.661 12.376C178.661 11.016 178.933 9.824 179.477 8.8C180.037 7.76 180.813 6.96 181.805 6.4C182.813 5.84 183.965 5.56 185.261 5.56C186.509 5.56 187.621 5.832 188.597 6.376C189.573 6.92 190.333 7.688 190.877 8.68C191.421 9.656 191.693 10.784 191.693 12.064ZM188.837 11.2C188.821 10.192 188.461 9.384 187.757 8.776C187.053 8.168 186.181 7.864 185.141 7.864C184.197 7.864 183.389 8.168 182.717 8.776C182.045 9.368 181.645 10.176 181.517 11.2H188.837ZM212.146 5.776L208.042 19H205.162L202.498 9.232L199.834 19H196.954L192.826 5.776H195.61L198.37 16.408L201.178 5.776H204.034L206.722 16.36L209.458 5.776H212.146ZM225.225 19.216C224.185 19.216 223.249 19.032 222.417 18.664C221.601 18.28 220.953 17.768 220.473 17.128C219.993 16.472 219.737 15.744 219.705 14.944H222.537C222.585 15.504 222.849 15.976 223.329 16.36C223.825 16.728 224.441 16.912 225.177 16.912C225.945 16.912 226.537 16.768 226.953 16.48C227.385 16.176 227.601 15.792 227.601 15.328C227.601 14.832 227.361 14.464 226.881 14.224C226.417 13.984 225.673 13.72 224.649 13.432C223.657 13.16 222.849 12.896 222.225 12.64C221.601 12.384 221.057 11.992 220.593 11.464C220.145 10.936 219.921 10.24 219.921 9.376C219.921 8.672 220.129 8.032 220.545 7.456C220.961 6.864 221.553 6.4 222.321 6.064C223.105 5.728 224.001 5.56 225.009 5.56C226.513 5.56 227.721 5.944 228.633 6.712C229.561 7.464 230.057 8.496 230.121 9.808H227.385C227.337 9.216 227.097 8.744 226.665 8.392C226.233 8.04 225.649 7.864 224.913 7.864C224.193 7.864 223.641 8 223.257 8.272C222.873 8.544 222.681 8.904 222.681 9.352C222.681 9.704 222.809 10 223.065 10.24C223.321 10.48 223.633 10.672 224.001 10.816C224.369 10.944 224.913 11.112 225.633 11.32C226.593 11.576 227.377 11.84 227.985 12.112C228.609 12.368 229.145 12.752 229.593 13.264C230.041 13.776 230.273 14.456 230.289 15.304C230.289 16.056 230.081 16.728 229.665 17.32C229.249 17.912 228.657 18.376 227.889 18.712C227.137 19.048 226.249 19.216 225.225 19.216ZM245.365 12.064C245.365 12.56 245.333 13.008 245.269 13.408H235.165C235.245 14.464 235.637 15.312 236.341 15.952C237.045 16.592 237.909 16.912 238.933 16.912C240.405 16.912 241.445 16.296 242.053 15.064H245.005C244.605 16.28 243.877 17.28 242.821 18.064C241.781 18.832 240.485 19.216 238.933 19.216C237.669 19.216 236.533 18.936 235.525 18.376C234.533 17.8 233.749 17 233.173 15.976C232.613 14.936 232.333 13.736 232.333 12.376C232.333 11.016 232.605 9.824 233.149 8.8C233.709 7.76 234.485 6.96 235.477 6.4C236.485 5.84 237.637 5.56 238.933 5.56C240.181 5.56 241.293 5.832 242.269 6.376C243.245 6.92 244.005 7.688 244.549 8.68C245.093 9.656 245.365 10.784 245.365 12.064ZM242.509 11.2C242.493 10.192 242.133 9.384 241.429 8.776C240.725 8.168 239.853 7.864 238.813 7.864C237.869 7.864 237.061 8.168 236.389 8.776C235.717 9.368 235.317 10.176 235.189 11.2H242.509ZM247.146 12.328C247.146 11 247.418 9.824 247.962 8.8C248.522 7.776 249.274 6.984 250.218 6.424C251.178 5.848 252.234 5.56 253.386 5.56C254.426 5.56 255.33 5.768 256.098 6.184C256.882 6.584 257.506 7.088 257.97 7.696V5.776H260.73V19H257.97V17.032C257.506 17.656 256.874 18.176 256.074 18.592C255.274 19.008 254.362 19.216 253.338 19.216C252.202 19.216 251.162 18.928 250.218 18.352C249.274 17.76 248.522 16.944 247.962 15.904C247.418 14.848 247.146 13.656 247.146 12.328ZM257.97 12.376C257.97 11.464 257.778 10.672 257.394 10C257.026 9.328 256.538 8.816 255.93 8.464C255.322 8.112 254.666 7.936 253.962 7.936C253.258 7.936 252.602 8.112 251.994 8.464C251.386 8.8 250.89 9.304 250.506 9.976C250.138 10.632 249.954 11.416 249.954 12.328C249.954 13.24 250.138 14.04 250.506 14.728C250.89 15.416 251.386 15.944 251.994 16.312C252.618 16.664 253.274 16.84 253.962 16.84C254.666 16.84 255.322 16.664 255.93 16.312C256.538 15.96 257.026 15.448 257.394 14.776C257.778 14.088 257.97 13.288 257.97 12.376ZM269.123 19.216C268.083 19.216 267.147 19.032 266.315 18.664C265.499 18.28 264.851 17.768 264.371 17.128C263.891 16.472 263.635 15.744 263.603 14.944H266.435C266.483 15.504 266.747 15.976 267.227 16.36C267.723 16.728 268.339 16.912 269.075 16.912C269.843 16.912 270.435 16.768 270.851 16.48C271.283 16.176 271.499 15.792 271.499 15.328C271.499 14.832 271.259 14.464 270.779 14.224C270.315 13.984 269.571 13.72 268.547 13.432C267.555 13.16 266.747 12.896 266.123 12.64C265.499 12.384 264.955 11.992 264.491 11.464C264.043 10.936 263.819 10.24 263.819 9.376C263.819 8.672 264.027 8.032 264.443 7.456C264.859 6.864 265.451 6.4 266.219 6.064C267.003 5.728 267.899 5.56 268.907 5.56C270.411 5.56 271.619 5.944 272.531 6.712C273.459 7.464 273.955 8.496 274.019 9.808H271.283C271.235 9.216 270.995 8.744 270.563 8.392C270.131 8.04 269.547 7.864 268.811 7.864C268.091 7.864 267.539 8 267.155 8.272C266.771 8.544 266.579 8.904 266.579 9.352C266.579 9.704 266.707 10 266.963 10.24C267.219 10.48 267.531 10.672 267.899 10.816C268.267 10.944 268.811 11.112 269.531 11.32C270.491 11.576 271.275 11.84 271.883 12.112C272.507 12.368 273.043 12.752 273.491 13.264C273.939 13.776 274.171 14.456 274.187 15.304C274.187 16.056 273.979 16.728 273.563 17.32C273.147 17.912 272.555 18.376 271.787 18.712C271.035 19.048 270.147 19.216 269.123 19.216ZM282.88 19.216C281.632 19.216 280.504 18.936 279.496 18.376C278.488 17.8 277.696 17 277.12 15.976C276.544 14.936 276.256 13.736 276.256 12.376C276.256 11.032 276.552 9.84 277.144 8.8C277.736 7.76 278.544 6.96 279.568 6.4C280.592 5.84 281.736 5.56 283 5.56C284.264 5.56 285.408 5.84 286.432 6.4C287.456 6.96 288.264 7.76 288.856 8.8C289.448 9.84 289.744 11.032 289.744 12.376C289.744 13.72 289.44 14.912 288.832 15.952C288.224 16.992 287.392 17.8 286.336 18.376C285.296 18.936 284.144 19.216 282.88 19.216ZM282.88 16.84C283.584 16.84 284.24 16.672 284.848 16.336C285.472 16 285.976 15.496 286.36 14.824C286.744 14.152 286.936 13.336 286.936 12.376C286.936 11.416 286.752 10.608 286.384 9.952C286.016 9.28 285.528 8.776 284.92 8.44C284.312 8.104 283.656 7.936 282.952 7.936C282.248 7.936 281.592 8.104 280.984 8.44C280.392 8.776 279.92 9.28 279.568 9.952C279.216 10.608 279.04 11.416 279.04 12.376C279.04 13.8 279.4 14.904 280.12 15.688C280.856 16.456 281.776 16.84 282.88 16.84ZM299.12 5.56C300.16 5.56 301.088 5.776 301.904 6.208C302.736 6.64 303.384 7.28 303.848 8.128C304.312 8.976 304.544 10 304.544 11.2V19H301.832V11.608C301.832 10.424 301.536 9.52 300.944 8.896C300.352 8.256 299.544 7.936 298.52 7.936C297.496 7.936 296.68 8.256 296.072 8.896C295.48 9.52 295.184 10.424 295.184 11.608V19H292.448V5.776H295.184V7.288C295.632 6.744 296.2 6.32 296.888 6.016C297.592 5.712 298.336 5.56 299.12 5.56ZM332.029 5.776L327.925 19H325.045L322.381 9.232L319.717 19H316.837L312.709 5.776H315.493L318.253 16.408L321.061 5.776H323.917L326.605 16.36L329.341 5.776H332.029ZM335.465 4.024C334.969 4.024 334.553 3.856 334.217 3.52C333.881 3.184 333.713 2.768 333.713 2.272C333.713 1.776 333.881 1.36 334.217 1.024C334.553 0.687999 334.969 0.519999 335.465 0.519999C335.945 0.519999 336.353 0.687999 336.689 1.024C337.025 1.36 337.193 1.776 337.193 2.272C337.193 2.768 337.025 3.184 336.689 3.52C336.353 3.856 335.945 4.024 335.465 4.024ZM336.809 5.776V19H334.073V5.776H336.809ZM343.594 8.008V15.328C343.594 15.824 343.706 16.184 343.93 16.408C344.17 16.616 344.57 16.72 345.13 16.72H346.81V19H344.65C343.418 19 342.474 18.712 341.818 18.136C341.162 17.56 340.834 16.624 340.834 15.328V8.008H339.274V5.776H340.834V2.488H343.594V5.776H346.81V8.008H343.594ZM356.171 5.56C357.179 5.56 358.075 5.776 358.859 6.208C359.659 6.64 360.283 7.28 360.731 8.128C361.195 8.976 361.427 10 361.427 11.2V19H358.715V11.608C358.715 10.424 358.419 9.52 357.827 8.896C357.235 8.256 356.427 7.936 355.403 7.936C354.379 7.936 353.563 8.256 352.955 8.896C352.363 9.52 352.067 10.424 352.067 11.608V19H349.331V1.24H352.067V7.312C352.531 6.752 353.115 6.32 353.819 6.016C354.539 5.712 355.323 5.56 356.171 5.56ZM374.344 8.008V15.328C374.344 15.824 374.456 16.184 374.68 16.408C374.92 16.616 375.32 16.72 375.88 16.72H377.56V19H375.4C374.168 19 373.224 18.712 372.568 18.136C371.912 17.56 371.584 16.624 371.584 15.328V8.008H370.024V5.776H371.584V2.488H374.344V5.776H377.56V8.008H374.344ZM386.921 5.56C387.929 5.56 388.825 5.776 389.609 6.208C390.409 6.64 391.033 7.28 391.481 8.128C391.945 8.976 392.177 10 392.177 11.2V19H389.465V11.608C389.465 10.424 389.169 9.52 388.577 8.896C387.985 8.256 387.177 7.936 386.153 7.936C385.129 7.936 384.313 8.256 383.705 8.896C383.113 9.52 382.817 10.424 382.817 11.608V19H380.081V1.24H382.817V7.312C383.281 6.752 383.865 6.32 384.569 6.016C385.289 5.712 386.073 5.56 386.921 5.56ZM407.787 12.064C407.787 12.56 407.755 13.008 407.691 13.408H397.587C397.667 14.464 398.059 15.312 398.763 15.952C399.467 16.592 400.331 16.912 401.355 16.912C402.827 16.912 403.867 16.296 404.475 15.064H407.427C407.027 16.28 406.299 17.28 405.243 18.064C404.203 18.832 402.907 19.216 401.355 19.216C400.091 19.216 398.955 18.936 397.947 18.376C396.955 17.8 396.171 17 395.595 15.976C395.035 14.936 394.755 13.736 394.755 12.376C394.755 11.016 395.027 9.824 395.571 8.8C396.131 7.76 396.907 6.96 397.899 6.4C398.907 5.84 400.059 5.56 401.355 5.56C402.603 5.56 403.715 5.832 404.691 6.376C405.667 6.92 406.427 7.688 406.971 8.68C407.515 9.656 407.787 10.784 407.787 12.064ZM404.931 11.2C404.915 10.192 404.555 9.384 403.851 8.776C403.147 8.168 402.275 7.864 401.235 7.864C400.291 7.864 399.483 8.168 398.811 8.776C398.139 9.368 397.739 10.176 397.611 11.2H404.931ZM419.45 7.72C419.914 7.112 420.546 6.6 421.346 6.184C422.146 5.768 423.05 5.56 424.058 5.56C425.21 5.56 426.258 5.848 427.202 6.424C428.162 6.984 428.914 7.776 429.458 8.8C430.002 9.824 430.274 11 430.274 12.328C430.274 13.656 430.002 14.848 429.458 15.904C428.914 16.944 428.162 17.76 427.202 18.352C426.258 18.928 425.21 19.216 424.058 19.216C423.05 19.216 422.154 19.016 421.37 18.616C420.586 18.2 419.946 17.688 419.45 17.08V25.288H416.714V5.776H419.45V7.72ZM427.49 12.328C427.49 11.416 427.298 10.632 426.914 9.976C426.546 9.304 426.05 8.8 425.426 8.464C424.818 8.112 424.162 7.936 423.458 7.936C422.77 7.936 422.114 8.112 421.49 8.464C420.882 8.816 420.386 9.328 420.002 10C419.634 10.672 419.45 11.464 419.45 12.376C419.45 13.288 419.634 14.088 420.002 14.776C420.386 15.448 420.882 15.96 421.49 16.312C422.114 16.664 422.77 16.84 423.458 16.84C424.162 16.84 424.818 16.664 425.426 16.312C426.05 15.944 426.546 15.416 426.914 14.728C427.298 14.04 427.49 13.24 427.49 12.328ZM435.716 1.24V19H432.98V1.24H435.716ZM438.396 12.328C438.396 11 438.668 9.824 439.212 8.8C439.772 7.776 440.524 6.984 441.468 6.424C442.428 5.848 443.484 5.56 444.636 5.56C445.676 5.56 446.58 5.768 447.348 6.184C448.132 6.584 448.756 7.088 449.22 7.696V5.776H451.98V19H449.22V17.032C448.756 17.656 448.124 18.176 447.324 18.592C446.524 19.008 445.612 19.216 444.588 19.216C443.452 19.216 442.412 18.928 441.468 18.352C440.524 17.76 439.772 16.944 439.212 15.904C438.668 14.848 438.396 13.656 438.396 12.328ZM449.22 12.376C449.22 11.464 449.028 10.672 448.644 10C448.276 9.328 447.788 8.816 447.18 8.464C446.572 8.112 445.916 7.936 445.212 7.936C444.508 7.936 443.852 8.112 443.244 8.464C442.636 8.8 442.14 9.304 441.756 9.976C441.388 10.632 441.204 11.416 441.204 12.328C441.204 13.24 441.388 14.04 441.756 14.728C442.14 15.416 442.636 15.944 443.244 16.312C443.868 16.664 444.524 16.84 445.212 16.84C445.916 16.84 446.572 16.664 447.18 16.312C447.788 15.96 448.276 15.448 448.644 14.776C449.028 14.088 449.22 13.288 449.22 12.376ZM462.245 5.56C463.285 5.56 464.213 5.776 465.029 6.208C465.861 6.64 466.509 7.28 466.973 8.128C467.437 8.976 467.669 10 467.669 11.2V19H464.957V11.608C464.957 10.424 464.661 9.52 464.069 8.896C463.477 8.256 462.669 7.936 461.645 7.936C460.621 7.936 459.805 8.256 459.197 8.896C458.605 9.52 458.309 10.424 458.309 11.608V19H455.573V5.776H458.309V7.288C458.757 6.744 459.325 6.32 460.013 6.016C460.717 5.712 461.461 5.56 462.245 5.56ZM474.351 8.008V15.328C474.351 15.824 474.463 16.184 474.687 16.408C474.927 16.616 475.327 16.72 475.887 16.72H477.567V19H475.407C474.175 19 473.231 18.712 472.575 18.136C471.919 17.56 471.591 16.624 471.591 15.328V8.008H470.031V5.776H471.591V2.488H474.351V5.776H477.567V8.008H474.351ZM484.889 19.216C483.849 19.216 482.913 19.032 482.081 18.664C481.265 18.28 480.617 17.768 480.137 17.128C479.657 16.472 479.401 15.744 479.369 14.944H482.201C482.249 15.504 482.513 15.976 482.993 16.36C483.489 16.728 484.105 16.912 484.841 16.912C485.609 16.912 486.201 16.768 486.617 16.48C487.049 16.176 487.265 15.792 487.265 15.328C487.265 14.832 487.025 14.464 486.545 14.224C486.081 13.984 485.337 13.72 484.313 13.432C483.321 13.16 482.513 12.896 481.889 12.64C481.265 12.384 480.721 11.992 480.257 11.464C479.809 10.936 479.585 10.24 479.585 9.376C479.585 8.672 479.793 8.032 480.209 7.456C480.625 6.864 481.217 6.4 481.985 6.064C482.769 5.728 483.665 5.56 484.673 5.56C486.177 5.56 487.385 5.944 488.297 6.712C489.225 7.464 489.721 8.496 489.785 9.808H487.049C487.001 9.216 486.761 8.744 486.329 8.392C485.897 8.04 485.313 7.864 484.577 7.864C483.857 7.864 483.305 8 482.921 8.272C482.537 8.544 482.345 8.904 482.345 9.352C482.345 9.704 482.473 10 482.729 10.24C482.985 10.48 483.297 10.672 483.665 10.816C484.033 10.944 484.577 11.112 485.297 11.32C486.257 11.576 487.041 11.84 487.649 12.112C488.273 12.368 488.809 12.752 489.257 13.264C489.705 13.776 489.937 14.456 489.953 15.304C489.953 16.056 489.745 16.728 489.329 17.32C488.913 17.912 488.321 18.376 487.553 18.712C486.801 19.048 485.913 19.216 484.889 19.216ZM502.336 8.008V15.328C502.336 15.824 502.448 16.184 502.672 16.408C502.912 16.616 503.312 16.72 503.872 16.72H505.552V19H503.392C502.16 19 501.216 18.712 500.56 18.136C499.904 17.56 499.576 16.624 499.576 15.328V8.008H498.016V5.776H499.576V2.488H502.336V5.776H505.552V8.008H502.336ZM514.913 5.56C515.921 5.56 516.817 5.776 517.601 6.208C518.401 6.64 519.025 7.28 519.473 8.128C519.937 8.976 520.169 10 520.169 11.2V19H517.457V11.608C517.457 10.424 517.161 9.52 516.569 8.896C515.977 8.256 515.169 7.936 514.145 7.936C513.121 7.936 512.305 8.256 511.697 8.896C511.105 9.52 510.809 10.424 510.809 11.608V19H508.073V1.24H510.809V7.312C511.273 6.752 511.857 6.32 512.561 6.016C513.281 5.712 514.065 5.56 514.913 5.56ZM522.747 12.328C522.747 11 523.019 9.824 523.563 8.8C524.123 7.776 524.875 6.984 525.819 6.424C526.779 5.848 527.835 5.56 528.987 5.56C530.027 5.56 530.931 5.768 531.699 6.184C532.483 6.584 533.107 7.088 533.571 7.696V5.776H536.331V19H533.571V17.032C533.107 17.656 532.475 18.176 531.675 18.592C530.875 19.008 529.963 19.216 528.939 19.216C527.803 19.216 526.763 18.928 525.819 18.352C524.875 17.76 524.123 16.944 523.563 15.904C523.019 14.848 522.747 13.656 522.747 12.328ZM533.571 12.376C533.571 11.464 533.379 10.672 532.995 10C532.627 9.328 532.139 8.816 531.531 8.464C530.923 8.112 530.267 7.936 529.563 7.936C528.859 7.936 528.203 8.112 527.595 8.464C526.987 8.8 526.491 9.304 526.107 9.976C525.739 10.632 525.555 11.416 525.555 12.328C525.555 13.24 525.739 14.04 526.107 14.728C526.491 15.416 526.987 15.944 527.595 16.312C528.219 16.664 528.875 16.84 529.563 16.84C530.267 16.84 530.923 16.664 531.531 16.312C532.139 15.96 532.627 15.448 532.995 14.776C533.379 14.088 533.571 13.288 533.571 12.376ZM543.117 8.008V15.328C543.117 15.824 543.229 16.184 543.453 16.408C543.693 16.616 544.093 16.72 544.653 16.72H546.333V19H544.173C542.941 19 541.997 18.712 541.341 18.136C540.685 17.56 540.357 16.624 540.357 15.328V8.008H538.797V5.776H540.357V2.488H543.117V5.776H546.333V8.008H543.117ZM0.888 50.328C0.888 49 1.16 47.824 1.704 46.8C2.264 45.776 3.016 44.984 3.96 44.424C4.92 43.848 5.976 43.56 7.128 43.56C8.168 43.56 9.072 43.768 9.84 44.184C10.624 44.584 11.248 45.088 11.712 45.696V43.776H14.472V57H11.712V55.032C11.248 55.656 10.616 56.176 9.816 56.592C9.016 57.008 8.104 57.216 7.08 57.216C5.944 57.216 4.904 56.928 3.96 56.352C3.016 55.76 2.264 54.944 1.704 53.904C1.16 52.848 0.888 51.656 0.888 50.328ZM11.712 50.376C11.712 49.464 11.52 48.672 11.136 48C10.768 47.328 10.28 46.816 9.672 46.464C9.064 46.112 8.408 45.936 7.704 45.936C7 45.936 6.344 46.112 5.736 46.464C5.128 46.8 4.632 47.304 4.248 47.976C3.88 48.632 3.696 49.416 3.696 50.328C3.696 51.24 3.88 52.04 4.248 52.728C4.632 53.416 5.128 53.944 5.736 54.312C6.36 54.664 7.016 54.84 7.704 54.84C8.408 54.84 9.064 54.664 9.672 54.312C10.28 53.96 10.768 53.448 11.136 52.776C11.52 52.088 11.712 51.288 11.712 50.376ZM20.8016 45.696C21.2016 45.024 21.7296 44.504 22.3856 44.136C23.0576 43.752 23.8496 43.56 24.7616 43.56V46.392H24.0656C22.9936 46.392 22.1776 46.664 21.6176 47.208C21.0736 47.752 20.8016 48.696 20.8016 50.04V57H18.0656V43.776H20.8016V45.696ZM39.3966 50.064C39.3966 50.56 39.3646 51.008 39.3006 51.408H29.1966C29.2766 52.464 29.6686 53.312 30.3726 53.952C31.0766 54.592 31.9406 54.912 32.9646 54.912C34.4366 54.912 35.4766 54.296 36.0846 53.064H39.0366C38.6366 54.28 37.9086 55.28 36.8526 56.064C35.8126 56.832 34.5166 57.216 32.9646 57.216C31.7006 57.216 30.5646 56.936 29.5566 56.376C28.5646 55.8 27.7806 55 27.2046 53.976C26.6446 52.936 26.3646 51.736 26.3646 50.376C26.3646 49.016 26.6366 47.824 27.1806 46.8C27.7406 45.76 28.5166 44.96 29.5086 44.4C30.5166 43.84 31.6686 43.56 32.9646 43.56C34.2126 43.56 35.3246 43.832 36.3006 44.376C37.2766 44.92 38.0366 45.688 38.5806 46.68C39.1246 47.656 39.3966 48.784 39.3966 50.064ZM36.5406 49.2C36.5246 48.192 36.1646 47.384 35.4606 46.776C34.7566 46.168 33.8846 45.864 32.8446 45.864C31.9006 45.864 31.0926 46.168 30.4206 46.776C29.7486 47.368 29.3486 48.176 29.2206 49.2H36.5406ZM51.0594 45.696C51.4594 45.024 51.9874 44.504 52.6434 44.136C53.3154 43.752 54.1074 43.56 55.0194 43.56V46.392H54.3234C53.2514 46.392 52.4354 46.664 51.8754 47.208C51.3314 47.752 51.0594 48.696 51.0594 50.04V57H48.3234V43.776H51.0594V45.696ZM56.6224 50.328C56.6224 49 56.8944 47.824 57.4384 46.8C57.9984 45.776 58.7504 44.984 59.6944 44.424C60.6544 43.848 61.7104 43.56 62.8624 43.56C63.9024 43.56 64.8064 43.768 65.5744 44.184C66.3584 44.584 66.9824 45.088 67.4464 45.696V43.776H70.2064V57H67.4464V55.032C66.9824 55.656 66.3504 56.176 65.5504 56.592C64.7504 57.008 63.8384 57.216 62.8144 57.216C61.6784 57.216 60.6384 56.928 59.6944 56.352C58.7504 55.76 57.9984 54.944 57.4384 53.904C56.8944 52.848 56.6224 51.656 56.6224 50.328ZM67.4464 50.376C67.4464 49.464 67.2544 48.672 66.8704 48C66.5024 47.328 66.0144 46.816 65.4064 46.464C64.7984 46.112 64.1424 45.936 63.4384 45.936C62.7344 45.936 62.0784 46.112 61.4704 46.464C60.8624 46.8 60.3664 47.304 59.9824 47.976C59.6144 48.632 59.4304 49.416 59.4304 50.328C59.4304 51.24 59.6144 52.04 59.9824 52.728C60.3664 53.416 60.8624 53.944 61.4704 54.312C62.0944 54.664 62.7504 54.84 63.4384 54.84C64.1424 54.84 64.7984 54.664 65.4064 54.312C66.0144 53.96 66.5024 53.448 66.8704 52.776C67.2544 52.088 67.4464 51.288 67.4464 50.376ZM76.536 45.696C76.936 45.024 77.464 44.504 78.12 44.136C78.792 43.752 79.584 43.56 80.496 43.56V46.392H79.8C78.728 46.392 77.912 46.664 77.352 47.208C76.808 47.752 76.536 48.696 76.536 50.04V57H73.8V43.776H76.536V45.696ZM84.4029 42.024C83.9069 42.024 83.4909 41.856 83.1549 41.52C82.8189 41.184 82.6509 40.768 82.6509 40.272C82.6509 39.776 82.8189 39.36 83.1549 39.024C83.4909 38.688 83.9069 38.52 84.4029 38.52C84.8829 38.52 85.2909 38.688 85.6269 39.024C85.9629 39.36 86.1309 39.776 86.1309 40.272C86.1309 40.768 85.9629 41.184 85.6269 41.52C85.2909 41.856 84.8829 42.024 84.4029 42.024ZM85.7469 43.776V57H83.0109V43.776H85.7469ZM96.0111 43.56C97.0511 43.56 97.9791 43.776 98.7951 44.208C99.6271 44.64 100.275 45.28 100.739 46.128C101.203 46.976 101.435 48 101.435 49.2V57H98.7231V49.608C98.7231 48.424 98.4271 47.52 97.8351 46.896C97.2431 46.256 96.4351 45.936 95.4111 45.936C94.3871 45.936 93.5711 46.256 92.9631 46.896C92.3711 47.52 92.0751 48.424 92.0751 49.608V57H89.3391V43.776H92.0751V45.288C92.5231 44.744 93.0911 44.32 93.7791 44.016C94.4831 43.712 95.2271 43.56 96.0111 43.56ZM110.253 43.56C111.277 43.56 112.181 43.768 112.965 44.184C113.765 44.584 114.389 45.088 114.837 45.696V43.776H117.597V57.216C117.597 58.432 117.341 59.512 116.829 60.456C116.317 61.416 115.573 62.168 114.597 62.712C113.637 63.256 112.485 63.528 111.141 63.528C109.349 63.528 107.861 63.104 106.677 62.256C105.493 61.424 104.821 60.288 104.661 58.848H107.373C107.581 59.536 108.021 60.088 108.693 60.504C109.381 60.936 110.197 61.152 111.141 61.152C112.245 61.152 113.133 60.816 113.805 60.144C114.493 59.472 114.837 58.496 114.837 57.216V55.008C114.373 55.632 113.741 56.16 112.941 56.592C112.157 57.008 111.261 57.216 110.253 57.216C109.101 57.216 108.045 56.928 107.085 56.352C106.141 55.76 105.389 54.944 104.829 53.904C104.285 52.848 104.013 51.656 104.013 50.328C104.013 49 104.285 47.824 104.829 46.8C105.389 45.776 106.141 44.984 107.085 44.424C108.045 43.848 109.101 43.56 110.253 43.56ZM114.837 50.376C114.837 49.464 114.645 48.672 114.261 48C113.893 47.328 113.405 46.816 112.797 46.464C112.189 46.112 111.533 45.936 110.829 45.936C110.125 45.936 109.469 46.112 108.861 46.464C108.253 46.8 107.757 47.304 107.373 47.976C107.005 48.632 106.821 49.416 106.821 50.328C106.821 51.24 107.005 52.04 107.373 52.728C107.757 53.416 108.253 53.944 108.861 54.312C109.485 54.664 110.141 54.84 110.829 54.84C111.533 54.84 112.189 54.664 112.797 54.312C113.405 53.96 113.893 53.448 114.261 52.776C114.645 52.088 114.837 51.288 114.837 50.376ZM130.617 46.008V53.328C130.617 53.824 130.729 54.184 130.953 54.408C131.193 54.616 131.593 54.72 132.153 54.72H133.833V57H131.673C130.441 57 129.497 56.712 128.841 56.136C128.185 55.56 127.857 54.624 127.857 53.328V46.008H126.297V43.776H127.857V40.488H130.617V43.776H133.833V46.008H130.617ZM142.091 57.216C140.843 57.216 139.715 56.936 138.707 56.376C137.699 55.8 136.907 55 136.331 53.976C135.755 52.936 135.467 51.736 135.467 50.376C135.467 49.032 135.763 47.84 136.355 46.8C136.947 45.76 137.755 44.96 138.779 44.4C139.803 43.84 140.947 43.56 142.211 43.56C143.475 43.56 144.619 43.84 145.643 44.4C146.667 44.96 147.475 45.76 148.067 46.8C148.659 47.84 148.955 49.032 148.955 50.376C148.955 51.72 148.651 52.912 148.043 53.952C147.435 54.992 146.603 55.8 145.547 56.376C144.507 56.936 143.355 57.216 142.091 57.216ZM142.091 54.84C142.795 54.84 143.451 54.672 144.059 54.336C144.683 54 145.187 53.496 145.571 52.824C145.955 52.152 146.147 51.336 146.147 50.376C146.147 49.416 145.963 48.608 145.595 47.952C145.227 47.28 144.739 46.776 144.131 46.44C143.523 46.104 142.867 45.936 142.163 45.936C141.459 45.936 140.803 46.104 140.195 46.44C139.603 46.776 139.131 47.28 138.779 47.952C138.427 48.608 138.251 49.416 138.251 50.376C138.251 51.8 138.611 52.904 139.331 53.688C140.067 54.456 140.987 54.84 142.091 54.84ZM163.222 43.56C164.246 43.56 165.15 43.768 165.934 44.184C166.734 44.584 167.358 45.088 167.806 45.696V43.776H170.566V57.216C170.566 58.432 170.31 59.512 169.798 60.456C169.286 61.416 168.542 62.168 167.566 62.712C166.606 63.256 165.454 63.528 164.11 63.528C162.318 63.528 160.83 63.104 159.646 62.256C158.462 61.424 157.79 60.288 157.63 58.848H160.342C160.55 59.536 160.99 60.088 161.662 60.504C162.35 60.936 163.166 61.152 164.11 61.152C165.214 61.152 166.102 60.816 166.774 60.144C167.462 59.472 167.806 58.496 167.806 57.216V55.008C167.342 55.632 166.71 56.16 165.91 56.592C165.126 57.008 164.23 57.216 163.222 57.216C162.07 57.216 161.014 56.928 160.054 56.352C159.11 55.76 158.358 54.944 157.798 53.904C157.254 52.848 156.982 51.656 156.982 50.328C156.982 49 157.254 47.824 157.798 46.8C158.358 45.776 159.11 44.984 160.054 44.424C161.014 43.848 162.07 43.56 163.222 43.56ZM167.806 50.376C167.806 49.464 167.614 48.672 167.23 48C166.862 47.328 166.374 46.816 165.766 46.464C165.158 46.112 164.502 45.936 163.798 45.936C163.094 45.936 162.438 46.112 161.83 46.464C161.222 46.8 160.726 47.304 160.342 47.976C159.974 48.632 159.79 49.416 159.79 50.328C159.79 51.24 159.974 52.04 160.342 52.728C160.726 53.416 161.222 53.944 161.83 54.312C162.454 54.664 163.11 54.84 163.798 54.84C164.502 54.84 165.158 54.664 165.766 54.312C166.374 53.96 166.862 53.448 167.23 52.776C167.614 52.088 167.806 51.288 167.806 50.376ZM179.895 57.216C178.647 57.216 177.519 56.936 176.511 56.376C175.503 55.8 174.711 55 174.135 53.976C173.559 52.936 173.271 51.736 173.271 50.376C173.271 49.032 173.567 47.84 174.159 46.8C174.751 45.76 175.559 44.96 176.583 44.4C177.607 43.84 178.751 43.56 180.015 43.56C181.279 43.56 182.423 43.84 183.447 44.4C184.471 44.96 185.279 45.76 185.871 46.8C186.463 47.84 186.759 49.032 186.759 50.376C186.759 51.72 186.455 52.912 185.847 53.952C185.239 54.992 184.407 55.8 183.351 56.376C182.311 56.936 181.159 57.216 179.895 57.216ZM179.895 54.84C180.599 54.84 181.255 54.672 181.863 54.336C182.487 54 182.991 53.496 183.375 52.824C183.759 52.152 183.951 51.336 183.951 50.376C183.951 49.416 183.767 48.608 183.399 47.952C183.031 47.28 182.543 46.776 181.935 46.44C181.327 46.104 180.671 45.936 179.967 45.936C179.263 45.936 178.607 46.104 177.999 46.44C177.407 46.776 176.935 47.28 176.583 47.952C176.231 48.608 176.055 49.416 176.055 50.376C176.055 51.8 176.415 52.904 177.135 53.688C177.871 54.456 178.791 54.84 179.895 54.84ZM190.568 57.168C190.072 57.168 189.656 57 189.32 56.664C188.984 56.328 188.816 55.912 188.816 55.416C188.816 54.92 188.984 54.504 189.32 54.168C189.656 53.832 190.072 53.664 190.568 53.664C191.048 53.664 191.456 53.832 191.792 54.168C192.128 54.504 192.296 54.92 192.296 55.416C192.296 55.912 192.128 56.328 191.792 56.664C191.456 57 191.048 57.168 190.568 57.168ZM219.248 43.776L215.144 57H212.264L209.6 47.232L206.936 57H204.056L199.928 43.776H202.712L205.472 54.408L208.28 43.776H211.136L213.824 54.36L216.56 43.776H219.248ZM233.412 50.064C233.412 50.56 233.38 51.008 233.316 51.408H223.212C223.292 52.464 223.684 53.312 224.388 53.952C225.092 54.592 225.956 54.912 226.98 54.912C228.452 54.912 229.492 54.296 230.1 53.064H233.052C232.652 54.28 231.924 55.28 230.868 56.064C229.828 56.832 228.532 57.216 226.98 57.216C225.716 57.216 224.58 56.936 223.572 56.376C222.58 55.8 221.796 55 221.22 53.976C220.66 52.936 220.38 51.736 220.38 50.376C220.38 49.016 220.652 47.824 221.196 46.8C221.756 45.76 222.532 44.96 223.524 44.4C224.532 43.84 225.684 43.56 226.98 43.56C228.228 43.56 229.34 43.832 230.316 44.376C231.292 44.92 232.052 45.688 232.596 46.68C233.14 47.656 233.412 48.784 233.412 50.064ZM230.556 49.2C230.54 48.192 230.18 47.384 229.476 46.776C228.772 46.168 227.9 45.864 226.86 45.864C225.916 45.864 225.108 46.168 224.436 46.776C223.764 47.368 223.364 48.176 223.236 49.2H230.556ZM236.537 40.32H239.513L236.993 46.032H235.073L236.537 40.32ZM247.029 54.552L250.773 43.776H253.677L248.637 57H245.373L240.357 43.776H243.285L247.029 54.552ZM267.865 50.064C267.865 50.56 267.833 51.008 267.769 51.408H257.665C257.745 52.464 258.137 53.312 258.841 53.952C259.545 54.592 260.409 54.912 261.433 54.912C262.905 54.912 263.945 54.296 264.553 53.064H267.505C267.105 54.28 266.377 55.28 265.321 56.064C264.281 56.832 262.985 57.216 261.433 57.216C260.169 57.216 259.033 56.936 258.025 56.376C257.033 55.8 256.249 55 255.673 53.976C255.113 52.936 254.833 51.736 254.833 50.376C254.833 49.016 255.105 47.824 255.649 46.8C256.209 45.76 256.985 44.96 257.977 44.4C258.985 43.84 260.137 43.56 261.433 43.56C262.681 43.56 263.793 43.832 264.769 44.376C265.745 44.92 266.505 45.688 267.049 46.68C267.593 47.656 267.865 48.784 267.865 50.064ZM265.009 49.2C264.993 48.192 264.633 47.384 263.929 46.776C263.225 46.168 262.353 45.864 261.313 45.864C260.369 45.864 259.561 46.168 258.889 46.776C258.217 47.368 257.817 48.176 257.689 49.2H265.009ZM294.552 43.776L290.448 57H287.568L284.904 47.232L282.24 57H279.36L275.232 43.776H278.016L280.776 54.408L283.584 43.776H286.44L289.128 54.36L291.864 43.776H294.552ZM302.333 57.216C301.085 57.216 299.957 56.936 298.949 56.376C297.941 55.8 297.149 55 296.573 53.976C295.997 52.936 295.709 51.736 295.709 50.376C295.709 49.032 296.005 47.84 296.597 46.8C297.189 45.76 297.997 44.96 299.021 44.4C300.045 43.84 301.189 43.56 302.453 43.56C303.717 43.56 304.861 43.84 305.885 44.4C306.909 44.96 307.717 45.76 308.309 46.8C308.901 47.84 309.197 49.032 309.197 50.376C309.197 51.72 308.893 52.912 308.285 53.952C307.677 54.992 306.845 55.8 305.789 56.376C304.749 56.936 303.597 57.216 302.333 57.216ZM302.333 54.84C303.037 54.84 303.693 54.672 304.301 54.336C304.925 54 305.429 53.496 305.813 52.824C306.197 52.152 306.389 51.336 306.389 50.376C306.389 49.416 306.205 48.608 305.837 47.952C305.469 47.28 304.981 46.776 304.373 46.44C303.765 46.104 303.109 45.936 302.405 45.936C301.701 45.936 301.045 46.104 300.437 46.44C299.845 46.776 299.373 47.28 299.021 47.952C298.669 48.608 298.493 49.416 298.493 50.376C298.493 51.8 298.853 52.904 299.573 53.688C300.309 54.456 301.229 54.84 302.333 54.84ZM314.638 45.696C315.038 45.024 315.566 44.504 316.222 44.136C316.894 43.752 317.686 43.56 318.598 43.56V46.392H317.902C316.83 46.392 316.014 46.664 315.454 47.208C314.91 47.752 314.638 48.696 314.638 50.04V57H311.902V43.776H314.638V45.696ZM326.345 50.4L332.441 57H328.745L323.849 51.312V57H321.113V39.24H323.849V49.56L328.649 43.776H332.441L326.345 50.4ZM346.522 50.064C346.522 50.56 346.49 51.008 346.426 51.408H336.322C336.402 52.464 336.794 53.312 337.498 53.952C338.202 54.592 339.066 54.912 340.09 54.912C341.562 54.912 342.602 54.296 343.21 53.064H346.162C345.762 54.28 345.034 55.28 343.978 56.064C342.938 56.832 341.642 57.216 340.09 57.216C338.826 57.216 337.69 56.936 336.682 56.376C335.69 55.8 334.906 55 334.33 53.976C333.77 52.936 333.49 51.736 333.49 50.376C333.49 49.016 333.762 47.824 334.306 46.8C334.866 45.76 335.642 44.96 336.634 44.4C337.642 43.84 338.794 43.56 340.09 43.56C341.338 43.56 342.45 43.832 343.426 44.376C344.402 44.92 345.162 45.688 345.706 46.68C346.25 47.656 346.522 48.784 346.522 50.064ZM343.666 49.2C343.65 48.192 343.29 47.384 342.586 46.776C341.882 46.168 341.01 45.864 339.97 45.864C339.026 45.864 338.218 46.168 337.546 46.776C336.874 47.368 336.474 48.176 336.346 49.2H343.666ZM348.302 50.328C348.302 49 348.574 47.824 349.118 46.8C349.678 45.776 350.43 44.984 351.374 44.424C352.334 43.848 353.398 43.56 354.566 43.56C355.43 43.56 356.278 43.752 357.11 44.136C357.958 44.504 358.63 45 359.126 45.624V39.24H361.886V57H359.126V55.008C358.678 55.648 358.054 56.176 357.254 56.592C356.47 57.008 355.566 57.216 354.542 57.216C353.39 57.216 352.334 56.928 351.374 56.352C350.43 55.76 349.678 54.944 349.118 53.904C348.574 52.848 348.302 51.656 348.302 50.328ZM359.126 50.376C359.126 49.464 358.934 48.672 358.55 48C358.182 47.328 357.694 46.816 357.086 46.464C356.478 46.112 355.822 45.936 355.118 45.936C354.414 45.936 353.758 46.112 353.15 46.464C352.542 46.8 352.046 47.304 351.662 47.976C351.294 48.632 351.11 49.416 351.11 50.328C351.11 51.24 351.294 52.04 351.662 52.728C352.046 53.416 352.542 53.944 353.15 54.312C353.774 54.664 354.43 54.84 355.118 54.84C355.822 54.84 356.478 54.664 357.086 54.312C357.694 53.96 358.182 53.448 358.55 52.776C358.934 52.088 359.126 51.288 359.126 50.376ZM377.45 57.216C376.202 57.216 375.074 56.936 374.066 56.376C373.058 55.8 372.266 55 371.69 53.976C371.114 52.936 370.826 51.736 370.826 50.376C370.826 49.032 371.122 47.84 371.714 46.8C372.306 45.76 373.114 44.96 374.138 44.4C375.162 43.84 376.306 43.56 377.57 43.56C378.834 43.56 379.978 43.84 381.002 44.4C382.026 44.96 382.834 45.76 383.426 46.8C384.018 47.84 384.314 49.032 384.314 50.376C384.314 51.72 384.01 52.912 383.402 53.952C382.794 54.992 381.962 55.8 380.906 56.376C379.866 56.936 378.714 57.216 377.45 57.216ZM377.45 54.84C378.154 54.84 378.81 54.672 379.418 54.336C380.042 54 380.546 53.496 380.93 52.824C381.314 52.152 381.506 51.336 381.506 50.376C381.506 49.416 381.322 48.608 380.954 47.952C380.586 47.28 380.098 46.776 379.49 46.44C378.882 46.104 378.226 45.936 377.522 45.936C376.818 45.936 376.162 46.104 375.554 46.44C374.962 46.776 374.49 47.28 374.138 47.952C373.786 48.608 373.61 49.416 373.61 50.376C373.61 51.8 373.97 52.904 374.69 53.688C375.426 54.456 376.346 54.84 377.45 54.84ZM398.995 43.776V57H396.259V55.44C395.827 55.984 395.259 56.416 394.555 56.736C393.867 57.04 393.131 57.192 392.347 57.192C391.307 57.192 390.371 56.976 389.539 56.544C388.723 56.112 388.075 55.472 387.595 54.624C387.131 53.776 386.899 52.752 386.899 51.552V43.776H389.611V51.144C389.611 52.328 389.907 53.24 390.499 53.88C391.091 54.504 391.899 54.816 392.923 54.816C393.947 54.816 394.755 54.504 395.347 53.88C395.955 53.24 396.259 52.328 396.259 51.144V43.776H398.995ZM405.797 46.008V53.328C405.797 53.824 405.909 54.184 406.133 54.408C406.373 54.616 406.773 54.72 407.333 54.72H409.013V57H406.853C405.621 57 404.677 56.712 404.021 56.136C403.365 55.56 403.037 54.624 403.037 53.328V46.008H401.477V43.776H403.037V40.488H405.797V43.776H409.013V46.008H405.797ZM435.529 43.776L431.425 57H428.545L425.881 47.232L423.217 57H420.337L416.209 43.776H418.993L421.753 54.408L424.561 43.776H427.417L430.105 54.36L432.841 43.776H435.529ZM444.413 43.56C445.421 43.56 446.317 43.776 447.101 44.208C447.901 44.64 448.525 45.28 448.973 46.128C449.437 46.976 449.669 48 449.669 49.2V57H446.957V49.608C446.957 48.424 446.661 47.52 446.069 46.896C445.477 46.256 444.669 45.936 443.645 45.936C442.621 45.936 441.805 46.256 441.197 46.896C440.605 47.52 440.309 48.424 440.309 49.608V57H437.573V39.24H440.309V45.312C440.773 44.752 441.357 44.32 442.061 44.016C442.781 43.712 443.565 43.56 444.413 43.56ZM454.551 42.024C454.055 42.024 453.639 41.856 453.303 41.52C452.967 41.184 452.799 40.768 452.799 40.272C452.799 39.776 452.967 39.36 453.303 39.024C453.639 38.688 454.055 38.52 454.551 38.52C455.031 38.52 455.439 38.688 455.775 39.024C456.111 39.36 456.279 39.776 456.279 40.272C456.279 40.768 456.111 41.184 455.775 41.52C455.439 41.856 455.031 42.024 454.551 42.024ZM455.895 43.776V57H453.159V43.776H455.895ZM458.576 50.376C458.576 49.016 458.848 47.824 459.392 46.8C459.952 45.76 460.72 44.96 461.696 44.4C462.672 43.84 463.792 43.56 465.056 43.56C466.656 43.56 467.976 43.944 469.016 44.712C470.072 45.464 470.784 46.544 471.152 47.952H468.2C467.96 47.296 467.576 46.784 467.048 46.416C466.52 46.048 465.856 45.864 465.056 45.864C463.936 45.864 463.04 46.264 462.368 47.064C461.712 47.848 461.384 48.952 461.384 50.376C461.384 51.8 461.712 52.912 462.368 53.712C463.04 54.512 463.936 54.912 465.056 54.912C466.64 54.912 467.688 54.216 468.2 52.824H471.152C470.768 54.168 470.048 55.24 468.992 56.04C467.936 56.824 466.624 57.216 465.056 57.216C463.792 57.216 462.672 56.936 461.696 56.376C460.72 55.8 459.952 55 459.392 53.976C458.848 52.936 458.576 51.736 458.576 50.376ZM480.718 43.56C481.726 43.56 482.622 43.776 483.406 44.208C484.206 44.64 484.83 45.28 485.278 46.128C485.742 46.976 485.974 48 485.974 49.2V57H483.262V49.608C483.262 48.424 482.966 47.52 482.374 46.896C481.782 46.256 480.974 45.936 479.95 45.936C478.926 45.936 478.11 46.256 477.502 46.896C476.91 47.52 476.614 48.424 476.614 49.608V57H473.878V39.24H476.614V45.312C477.078 44.752 477.662 44.32 478.366 44.016C479.086 43.712 479.87 43.56 480.718 43.56ZM498.434 45.72C498.898 45.112 499.53 44.6 500.33 44.184C501.13 43.768 502.034 43.56 503.042 43.56C504.194 43.56 505.242 43.848 506.186 44.424C507.146 44.984 507.898 45.776 508.442 46.8C508.986 47.824 509.258 49 509.258 50.328C509.258 51.656 508.986 52.848 508.442 53.904C507.898 54.944 507.146 55.76 506.186 56.352C505.242 56.928 504.194 57.216 503.042 57.216C502.034 57.216 501.138 57.016 500.354 56.616C499.57 56.2 498.93 55.688 498.434 55.08V63.288H495.698V43.776H498.434V45.72ZM506.474 50.328C506.474 49.416 506.282 48.632 505.898 47.976C505.53 47.304 505.034 46.8 504.41 46.464C503.802 46.112 503.146 45.936 502.442 45.936C501.754 45.936 501.098 46.112 500.474 46.464C499.866 46.816 499.37 47.328 498.986 48C498.618 48.672 498.434 49.464 498.434 50.376C498.434 51.288 498.618 52.088 498.986 52.776C499.37 53.448 499.866 53.96 500.474 54.312C501.098 54.664 501.754 54.84 502.442 54.84C503.146 54.84 503.802 54.664 504.41 54.312C505.034 53.944 505.53 53.416 505.898 52.728C506.282 52.04 506.474 51.24 506.474 50.328ZM514.7 39.24V57H511.964V39.24H514.7ZM517.38 50.328C517.38 49 517.652 47.824 518.196 46.8C518.756 45.776 519.508 44.984 520.452 44.424C521.412 43.848 522.468 43.56 523.62 43.56C524.66 43.56 525.564 43.768 526.332 44.184C527.116 44.584 527.74 45.088 528.204 45.696V43.776H530.964V57H528.204V55.032C527.74 55.656 527.108 56.176 526.308 56.592C525.508 57.008 524.596 57.216 523.572 57.216C522.436 57.216 521.396 56.928 520.452 56.352C519.508 55.76 518.756 54.944 518.196 53.904C517.652 52.848 517.38 51.656 517.38 50.328ZM528.204 50.376C528.204 49.464 528.012 48.672 527.628 48C527.26 47.328 526.772 46.816 526.164 46.464C525.556 46.112 524.9 45.936 524.196 45.936C523.492 45.936 522.836 46.112 522.228 46.464C521.62 46.8 521.124 47.304 520.74 47.976C520.372 48.632 520.188 49.416 520.188 50.328C520.188 51.24 520.372 52.04 520.74 52.728C521.124 53.416 521.62 53.944 522.228 54.312C522.852 54.664 523.508 54.84 524.196 54.84C524.9 54.84 525.556 54.664 526.164 54.312C526.772 53.96 527.26 53.448 527.628 52.776C528.012 52.088 528.204 51.288 528.204 50.376ZM541.23 43.56C542.27 43.56 543.198 43.776 544.014 44.208C544.846 44.64 545.494 45.28 545.958 46.128C546.422 46.976 546.654 48 546.654 49.2V57H543.942V49.608C543.942 48.424 543.646 47.52 543.054 46.896C542.462 46.256 541.654 45.936 540.63 45.936C539.606 45.936 538.79 46.256 538.182 46.896C537.59 47.52 537.294 48.424 537.294 49.608V57H534.558V43.776H537.294V45.288C537.742 44.744 538.31 44.32 538.998 44.016C539.702 43.712 540.446 43.56 541.23 43.56ZM553.336 46.008V53.328C553.336 53.824 553.448 54.184 553.672 54.408C553.912 54.616 554.312 54.72 554.872 54.72H556.552V57H554.392C553.16 57 552.216 56.712 551.56 56.136C550.904 55.56 550.576 54.624 550.576 53.328V46.008H549.016V43.776H550.576V40.488H553.336V43.776H556.552V46.008H553.336ZM563.873 57.216C562.833 57.216 561.897 57.032 561.065 56.664C560.249 56.28 559.601 55.768 559.121 55.128C558.641 54.472 558.385 53.744 558.353 52.944H561.185C561.233 53.504 561.497 53.976 561.977 54.36C562.473 54.728 563.089 54.912 563.825 54.912C564.593 54.912 565.185 54.768 565.601 54.48C566.033 54.176 566.249 53.792 566.249 53.328C566.249 52.832 566.009 52.464 565.529 52.224C565.065 51.984 564.321 51.72 563.297 51.432C562.305 51.16 561.497 50.896 560.873 50.64C560.249 50.384 559.705 49.992 559.241 49.464C558.793 48.936 558.569 48.24 558.569 47.376C558.569 46.672 558.777 46.032 559.193 45.456C559.609 44.864 560.201 44.4 560.969 44.064C561.753 43.728 562.649 43.56 563.657 43.56C565.161 43.56 566.369 43.944 567.281 44.712C568.209 45.464 568.705 46.496 568.769 47.808H566.033C565.985 47.216 565.745 46.744 565.313 46.392C564.881 46.04 564.297 45.864 563.561 45.864C562.841 45.864 562.289 46 561.905 46.272C561.521 46.544 561.329 46.904 561.329 47.352C561.329 47.704 561.457 48 561.713 48.24C561.969 48.48 562.281 48.672 562.649 48.816C563.017 48.944 563.561 49.112 564.281 49.32C565.241 49.576 566.025 49.84 566.633 50.112C567.257 50.368 567.793 50.752 568.241 51.264C568.689 51.776 568.921 52.456 568.937 53.304C568.937 54.056 568.729 54.728 568.313 55.32C567.897 55.912 567.305 56.376 566.537 56.712C565.785 57.048 564.897 57.216 563.873 57.216ZM7.128 81.56C8.152 81.56 9.056 81.768 9.84 82.184C10.64 82.584 11.264 83.088 11.712 83.696V81.776H14.472V95.216C14.472 96.432 14.216 97.512 13.704 98.456C13.192 99.416 12.448 100.168 11.472 100.712C10.512 101.256 9.36 101.528 8.016 101.528C6.224 101.528 4.736 101.104 3.552 100.256C2.368 99.424 1.696 98.288 1.536 96.848H4.248C4.456 97.536 4.896 98.088 5.568 98.504C6.256 98.936 7.072 99.152 8.016 99.152C9.12 99.152 10.008 98.816 10.68 98.144C11.368 97.472 11.712 96.496 11.712 95.216V93.008C11.248 93.632 10.616 94.16 9.816 94.592C9.032 95.008 8.136 95.216 7.128 95.216C5.976 95.216 4.92 94.928 3.96 94.352C3.016 93.76 2.264 92.944 1.704 91.904C1.16 90.848 0.888 89.656 0.888 88.328C0.888 87 1.16 85.824 1.704 84.8C2.264 83.776 3.016 82.984 3.96 82.424C4.92 81.848 5.976 81.56 7.128 81.56ZM11.712 88.376C11.712 87.464 11.52 86.672 11.136 86C10.768 85.328 10.28 84.816 9.672 84.464C9.064 84.112 8.408 83.936 7.704 83.936C7 83.936 6.344 84.112 5.736 84.464C5.128 84.8 4.632 85.304 4.248 85.976C3.88 86.632 3.696 87.416 3.696 88.328C3.696 89.24 3.88 90.04 4.248 90.728C4.632 91.416 5.128 91.944 5.736 92.312C6.36 92.664 7.016 92.84 7.704 92.84C8.408 92.84 9.064 92.664 9.672 92.312C10.28 91.96 10.768 91.448 11.136 90.776C11.52 90.088 11.712 89.288 11.712 88.376ZM23.8016 95.216C22.5536 95.216 21.4256 94.936 20.4176 94.376C19.4096 93.8 18.6176 93 18.0416 91.976C17.4656 90.936 17.1776 89.736 17.1776 88.376C17.1776 87.032 17.4736 85.84 18.0656 84.8C18.6576 83.76 19.4656 82.96 20.4896 82.4C21.5136 81.84 22.6576 81.56 23.9216 81.56C25.1856 81.56 26.3296 81.84 27.3536 82.4C28.3776 82.96 29.1856 83.76 29.7776 84.8C30.3696 85.84 30.6656 87.032 30.6656 88.376C30.6656 89.72 30.3616 90.912 29.7536 91.952C29.1456 92.992 28.3136 93.8 27.2576 94.376C26.2176 94.936 25.0656 95.216 23.8016 95.216ZM23.8016 92.84C24.5056 92.84 25.1616 92.672 25.7696 92.336C26.3936 92 26.8976 91.496 27.2816 90.824C27.6656 90.152 27.8576 89.336 27.8576 88.376C27.8576 87.416 27.6736 86.608 27.3056 85.952C26.9376 85.28 26.4496 84.776 25.8416 84.44C25.2336 84.104 24.5776 83.936 23.8736 83.936C23.1696 83.936 22.5136 84.104 21.9056 84.44C21.3136 84.776 20.8416 85.28 20.4896 85.952C20.1376 86.608 19.9616 87.416 19.9616 88.376C19.9616 89.8 20.3216 90.904 21.0416 91.688C21.7776 92.456 22.6976 92.84 23.8016 92.84ZM57.3647 81.776L53.2607 95H50.3807L47.7167 85.232L45.0527 95H42.1727L38.0447 81.776H40.8287L43.5887 92.408L46.3967 81.776H49.2527L51.9407 92.36L54.6767 81.776H57.3647ZM71.5294 88.064C71.5294 88.56 71.4974 89.008 71.4334 89.408H61.3294C61.4094 90.464 61.8014 91.312 62.5054 91.952C63.2094 92.592 64.0734 92.912 65.0974 92.912C66.5694 92.912 67.6094 92.296 68.2174 91.064H71.1694C70.7694 92.28 70.0414 93.28 68.9854 94.064C67.9454 94.832 66.6494 95.216 65.0974 95.216C63.8334 95.216 62.6974 94.936 61.6894 94.376C60.6974 93.8 59.9134 93 59.3374 91.976C58.7774 90.936 58.4974 89.736 58.4974 88.376C58.4974 87.016 58.7694 85.824 59.3134 84.8C59.8734 83.76 60.6494 82.96 61.6414 82.4C62.6494 81.84 63.8014 81.56 65.0974 81.56C66.3454 81.56 67.4574 81.832 68.4334 82.376C69.4094 82.92 70.1694 83.688 70.7134 84.68C71.2574 85.656 71.5294 86.784 71.5294 88.064ZM68.6734 87.2C68.6574 86.192 68.2974 85.384 67.5934 84.776C66.8894 84.168 66.0174 83.864 64.9774 83.864C64.0334 83.864 63.2254 84.168 62.5534 84.776C61.8814 85.368 61.4814 86.176 61.3534 87.2H68.6734ZM76.9579 77.24V95H74.2219V77.24H76.9579ZM83.286 77.24V95H80.55V77.24H83.286ZM96.3045 84.008V91.328C96.3045 91.824 96.4165 92.184 96.6405 92.408C96.8805 92.616 97.2805 92.72 97.8405 92.72H99.5205V95H97.3605C96.1285 95 95.1845 94.712 94.5285 94.136C93.8725 93.56 93.5445 92.624 93.5445 91.328V84.008H91.9845V81.776H93.5445V78.488H96.3045V81.776H99.5205V84.008H96.3045ZM107.778 95.216C106.53 95.216 105.402 94.936 104.394 94.376C103.386 93.8 102.594 93 102.018 91.976C101.442 90.936 101.154 89.736 101.154 88.376C101.154 87.032 101.45 85.84 102.042 84.8C102.634 83.76 103.442 82.96 104.466 82.4C105.49 81.84 106.634 81.56 107.898 81.56C109.162 81.56 110.306 81.84 111.33 82.4C112.354 82.96 113.162 83.76 113.754 84.8C114.346 85.84 114.642 87.032 114.642 88.376C114.642 89.72 114.338 90.912 113.73 91.952C113.122 92.992 112.29 93.8 111.234 94.376C110.194 94.936 109.042 95.216 107.778 95.216ZM107.778 92.84C108.482 92.84 109.138 92.672 109.746 92.336C110.37 92 110.874 91.496 111.258 90.824C111.642 90.152 111.834 89.336 111.834 88.376C111.834 87.416 111.65 86.608 111.282 85.952C110.914 85.28 110.426 84.776 109.818 84.44C109.21 84.104 108.554 83.936 107.85 83.936C107.146 83.936 106.49 84.104 105.882 84.44C105.29 84.776 104.818 85.28 104.466 85.952C104.114 86.608 103.938 87.416 103.938 88.376C103.938 89.8 104.298 90.904 105.018 91.688C105.754 92.456 106.674 92.84 107.778 92.84ZM122.675 81.56C123.699 81.56 124.603 81.768 125.387 82.184C126.187 82.584 126.811 83.088 127.259 83.696V81.776H130.019V95.216C130.019 96.432 129.763 97.512 129.251 98.456C128.739 99.416 127.995 100.168 127.019 100.712C126.059 101.256 124.907 101.528 123.563 101.528C121.771 101.528 120.283 101.104 119.099 100.256C117.915 99.424 117.243 98.288 117.083 96.848H119.795C120.003 97.536 120.443 98.088 121.115 98.504C121.803 98.936 122.619 99.152 123.563 99.152C124.667 99.152 125.555 98.816 126.227 98.144C126.915 97.472 127.259 96.496 127.259 95.216V93.008C126.795 93.632 126.163 94.16 125.363 94.592C124.579 95.008 123.683 95.216 122.675 95.216C121.523 95.216 120.467 94.928 119.507 94.352C118.563 93.76 117.811 92.944 117.251 91.904C116.707 90.848 116.435 89.656 116.435 88.328C116.435 87 116.707 85.824 117.251 84.8C117.811 83.776 118.563 82.984 119.507 82.424C120.467 81.848 121.523 81.56 122.675 81.56ZM127.259 88.376C127.259 87.464 127.067 86.672 126.683 86C126.315 85.328 125.827 84.816 125.219 84.464C124.611 84.112 123.955 83.936 123.251 83.936C122.547 83.936 121.891 84.112 121.283 84.464C120.675 84.8 120.179 85.304 119.795 85.976C119.427 86.632 119.243 87.416 119.243 88.328C119.243 89.24 119.427 90.04 119.795 90.728C120.179 91.416 120.675 91.944 121.283 92.312C121.907 92.664 122.563 92.84 123.251 92.84C123.955 92.84 124.611 92.664 125.219 92.312C125.827 91.96 126.315 91.448 126.683 90.776C127.067 90.088 127.259 89.288 127.259 88.376ZM145.733 88.064C145.733 88.56 145.701 89.008 145.637 89.408H135.533C135.613 90.464 136.005 91.312 136.709 91.952C137.413 92.592 138.277 92.912 139.301 92.912C140.773 92.912 141.813 92.296 142.421 91.064H145.372C144.973 92.28 144.245 93.28 143.189 94.064C142.149 94.832 140.853 95.216 139.301 95.216C138.037 95.216 136.901 94.936 135.893 94.376C134.901 93.8 134.117 93 133.541 91.976C132.981 90.936 132.701 89.736 132.701 88.376C132.701 87.016 132.973 85.824 133.517 84.8C134.077 83.76 134.853 82.96 135.845 82.4C136.853 81.84 138.005 81.56 139.301 81.56C140.549 81.56 141.661 81.832 142.637 82.376C143.613 82.92 144.373 83.688 144.917 84.68C145.461 85.656 145.733 86.784 145.733 88.064ZM142.877 87.2C142.861 86.192 142.501 85.384 141.797 84.776C141.093 84.168 140.221 83.864 139.181 83.864C138.237 83.864 137.429 84.168 136.757 84.776C136.085 85.368 135.685 86.176 135.557 87.2H142.877ZM151.617 84.008V91.328C151.617 91.824 151.729 92.184 151.953 92.408C152.193 92.616 152.593 92.72 153.153 92.72H154.833V95H152.673C151.441 95 150.497 94.712 149.841 94.136C149.185 93.56 148.857 92.624 148.857 91.328V84.008H147.297V81.776H148.857V78.488H151.617V81.776H154.833V84.008H151.617ZM164.195 81.56C165.203 81.56 166.099 81.776 166.883 82.208C167.683 82.64 168.307 83.28 168.755 84.128C169.219 84.976 169.451 86 169.451 87.2V95H166.739V87.608C166.739 86.424 166.443 85.52 165.851 84.896C165.259 84.256 164.451 83.936 163.427 83.936C162.403 83.936 161.587 84.256 160.979 84.896C160.387 85.52 160.091 86.424 160.091 87.608V95H157.355V77.24H160.091V83.312C160.555 82.752 161.139 82.32 161.843 82.016C162.563 81.712 163.347 81.56 164.195 81.56ZM185.061 88.064C185.061 88.56 185.029 89.008 184.965 89.408H174.861C174.941 90.464 175.333 91.312 176.037 91.952C176.741 92.592 177.605 92.912 178.629 92.912C180.101 92.912 181.141 92.296 181.749 91.064H184.701C184.301 92.28 183.573 93.28 182.517 94.064C181.477 94.832 180.181 95.216 178.629 95.216C177.365 95.216 176.229 94.936 175.221 94.376C174.229 93.8 173.445 93 172.869 91.976C172.309 90.936 172.029 89.736 172.029 88.376C172.029 87.016 172.301 85.824 172.845 84.8C173.405 83.76 174.181 82.96 175.173 82.4C176.181 81.84 177.333 81.56 178.629 81.56C179.877 81.56 180.989 81.832 181.965 82.376C182.941 82.92 183.701 83.688 184.245 84.68C184.789 85.656 185.061 86.784 185.061 88.064ZM182.205 87.2C182.189 86.192 181.829 85.384 181.125 84.776C180.421 84.168 179.549 83.864 178.509 83.864C177.565 83.864 176.757 84.168 176.085 84.776C175.413 85.368 175.013 86.176 174.885 87.2H182.205ZM190.489 83.696C190.889 83.024 191.417 82.504 192.073 82.136C192.745 81.752 193.537 81.56 194.449 81.56V84.392H193.753C192.681 84.392 191.865 84.664 191.305 85.208C190.761 85.752 190.489 86.696 190.489 88.04V95H187.753V81.776H190.489V83.696ZM207.998 95.216C206.958 95.216 206.022 95.032 205.19 94.664C204.374 94.28 203.726 93.768 203.246 93.128C202.766 92.472 202.51 91.744 202.478 90.944H205.31C205.358 91.504 205.622 91.976 206.102 92.36C206.598 92.728 207.214 92.912 207.95 92.912C208.718 92.912 209.31 92.768 209.726 92.48C210.158 92.176 210.374 91.792 210.374 91.328C210.374 90.832 210.134 90.464 209.654 90.224C209.19 89.984 208.446 89.72 207.422 89.432C206.43 89.16 205.622 88.896 204.998 88.64C204.374 88.384 203.83 87.992 203.366 87.464C202.918 86.936 202.694 86.24 202.694 85.376C202.694 84.672 202.902 84.032 203.318 83.456C203.734 82.864 204.326 82.4 205.094 82.064C205.878 81.728 206.774 81.56 207.782 81.56C209.286 81.56 210.494 81.944 211.406 82.712C212.334 83.464 212.83 84.496 212.894 85.808H210.158C210.11 85.216 209.87 84.744 209.438 84.392C209.006 84.04 208.422 83.864 207.686 83.864C206.966 83.864 206.414 84 206.03 84.272C205.646 84.544 205.454 84.904 205.454 85.352C205.454 85.704 205.582 86 205.838 86.24C206.094 86.48 206.406 86.672 206.774 86.816C207.142 86.944 207.686 87.112 208.406 87.32C209.366 87.576 210.15 87.84 210.758 88.112C211.382 88.368 211.918 88.752 212.366 89.264C212.814 89.776 213.046 90.456 213.062 91.304C213.062 92.056 212.854 92.728 212.438 93.32C212.022 93.912 211.43 94.376 210.662 94.712C209.91 95.048 209.022 95.216 207.998 95.216ZM221.755 95.216C220.507 95.216 219.379 94.936 218.371 94.376C217.363 93.8 216.571 93 215.995 91.976C215.419 90.936 215.131 89.736 215.131 88.376C215.131 87.032 215.427 85.84 216.019 84.8C216.611 83.76 217.419 82.96 218.443 82.4C219.467 81.84 220.611 81.56 221.875 81.56C223.139 81.56 224.283 81.84 225.307 82.4C226.331 82.96 227.139 83.76 227.731 84.8C228.323 85.84 228.619 87.032 228.619 88.376C228.619 89.72 228.315 90.912 227.707 91.952C227.099 92.992 226.267 93.8 225.211 94.376C224.171 94.936 223.019 95.216 221.755 95.216ZM221.755 92.84C222.459 92.84 223.115 92.672 223.723 92.336C224.347 92 224.851 91.496 225.235 90.824C225.619 90.152 225.811 89.336 225.811 88.376C225.811 87.416 225.627 86.608 225.259 85.952C224.891 85.28 224.403 84.776 223.795 84.44C223.187 84.104 222.531 83.936 221.827 83.936C221.123 83.936 220.467 84.104 219.859 84.44C219.267 84.776 218.795 85.28 218.443 85.952C218.091 86.608 217.915 87.416 217.915 88.376C217.915 89.8 218.275 90.904 218.995 91.688C219.731 92.456 220.651 92.84 221.755 92.84ZM249.462 81.776L241.35 101.216H238.518L241.206 94.784L235.998 81.776H239.046L242.766 91.856L246.63 81.776H249.462ZM257.263 95.216C256.015 95.216 254.887 94.936 253.879 94.376C252.871 93.8 252.079 93 251.503 91.976C250.927 90.936 250.639 89.736 250.639 88.376C250.639 87.032 250.935 85.84 251.527 84.8C252.119 83.76 252.927 82.96 253.951 82.4C254.975 81.84 256.119 81.56 257.383 81.56C258.647 81.56 259.791 81.84 260.815 82.4C261.839 82.96 262.647 83.76 263.239 84.8C263.831 85.84 264.127 87.032 264.127 88.376C264.127 89.72 263.823 90.912 263.215 91.952C262.607 92.992 261.775 93.8 260.719 94.376C259.679 94.936 258.527 95.216 257.263 95.216ZM257.263 92.84C257.967 92.84 258.623 92.672 259.231 92.336C259.855 92 260.359 91.496 260.743 90.824C261.127 90.152 261.319 89.336 261.319 88.376C261.319 87.416 261.135 86.608 260.767 85.952C260.399 85.28 259.911 84.776 259.303 84.44C258.695 84.104 258.039 83.936 257.335 83.936C256.631 83.936 255.975 84.104 255.367 84.44C254.775 84.776 254.303 85.28 253.951 85.952C253.599 86.608 253.423 87.416 253.423 88.376C253.423 89.8 253.783 90.904 254.503 91.688C255.239 92.456 256.159 92.84 257.263 92.84ZM278.807 81.776V95H276.071V93.44C275.639 93.984 275.071 94.416 274.367 94.736C273.679 95.04 272.943 95.192 272.159 95.192C271.119 95.192 270.183 94.976 269.351 94.544C268.535 94.112 267.887 93.472 267.407 92.624C266.943 91.776 266.711 90.752 266.711 89.552V81.776H269.423V89.144C269.423 90.328 269.719 91.24 270.311 91.88C270.903 92.504 271.711 92.816 272.735 92.816C273.759 92.816 274.567 92.504 275.159 91.88C275.767 91.24 276.071 90.328 276.071 89.144V81.776H278.807ZM287.74 88.376C287.74 87.016 288.012 85.824 288.556 84.8C289.116 83.76 289.884 82.96 290.86 82.4C291.836 81.84 292.956 81.56 294.22 81.56C295.82 81.56 297.14 81.944 298.18 82.712C299.236 83.464 299.948 84.544 300.316 85.952H297.364C297.124 85.296 296.74 84.784 296.212 84.416C295.684 84.048 295.02 83.864 294.22 83.864C293.1 83.864 292.204 84.264 291.532 85.064C290.876 85.848 290.548 86.952 290.548 88.376C290.548 89.8 290.876 90.912 291.532 91.712C292.204 92.512 293.1 92.912 294.22 92.912C295.804 92.912 296.852 92.216 297.364 90.824H300.316C299.932 92.168 299.212 93.24 298.156 94.04C297.1 94.824 295.788 95.216 294.22 95.216C292.956 95.216 291.836 94.936 290.86 94.376C289.884 93.8 289.116 93 288.556 91.976C288.012 90.936 287.74 89.736 287.74 88.376ZM302.13 88.328C302.13 87 302.402 85.824 302.946 84.8C303.506 83.776 304.258 82.984 305.202 82.424C306.162 81.848 307.218 81.56 308.37 81.56C309.41 81.56 310.314 81.768 311.082 82.184C311.866 82.584 312.49 83.088 312.954 83.696V81.776H315.714V95H312.954V93.032C312.49 93.656 311.858 94.176 311.058 94.592C310.258 95.008 309.346 95.216 308.322 95.216C307.186 95.216 306.146 94.928 305.202 94.352C304.258 93.76 303.506 92.944 302.946 91.904C302.402 90.848 302.13 89.656 302.13 88.328ZM312.954 88.376C312.954 87.464 312.762 86.672 312.378 86C312.01 85.328 311.522 84.816 310.914 84.464C310.306 84.112 309.65 83.936 308.946 83.936C308.242 83.936 307.586 84.112 306.978 84.464C306.37 84.8 305.874 85.304 305.49 85.976C305.122 86.632 304.938 87.416 304.938 88.328C304.938 89.24 305.122 90.04 305.49 90.728C305.874 91.416 306.37 91.944 306.978 92.312C307.602 92.664 308.258 92.84 308.946 92.84C309.65 92.84 310.306 92.664 310.914 92.312C311.522 91.96 312.01 91.448 312.378 90.776C312.762 90.088 312.954 89.288 312.954 88.376ZM325.98 81.56C327.02 81.56 327.948 81.776 328.764 82.208C329.596 82.64 330.244 83.28 330.708 84.128C331.172 84.976 331.404 86 331.404 87.2V95H328.692V87.608C328.692 86.424 328.396 85.52 327.804 84.896C327.212 84.256 326.404 83.936 325.38 83.936C324.356 83.936 323.54 84.256 322.932 84.896C322.34 85.52 322.044 86.424 322.044 87.608V95H319.308V81.776H322.044V83.288C322.492 82.744 323.06 82.32 323.748 82.016C324.452 81.712 325.196 81.56 325.98 81.56ZM342.52 80.024C342.024 80.024 341.608 79.856 341.272 79.52C340.936 79.184 340.768 78.768 340.768 78.272C340.768 77.776 340.936 77.36 341.272 77.024C341.608 76.688 342.024 76.52 342.52 76.52C343 76.52 343.408 76.688 343.744 77.024C344.08 77.36 344.248 77.776 344.248 78.272C344.248 78.768 344.08 79.184 343.744 79.52C343.408 79.856 343 80.024 342.52 80.024ZM343.864 97.592C343.864 98.888 343.536 99.824 342.88 100.4C342.24 100.992 341.304 101.288 340.072 101.288H338.656V98.984H339.592C340.152 98.984 340.544 98.872 340.768 98.648C341.008 98.44 341.128 98.088 341.128 97.592V81.776H343.864V97.592ZM359.432 81.776V95H356.696V93.44C356.264 93.984 355.696 94.416 354.992 94.736C354.304 95.04 353.568 95.192 352.784 95.192C351.744 95.192 350.808 94.976 349.976 94.544C349.16 94.112 348.512 93.472 348.032 92.624C347.568 91.776 347.336 90.752 347.336 89.552V81.776H350.048V89.144C350.048 90.328 350.344 91.24 350.936 91.88C351.528 92.504 352.336 92.816 353.36 92.816C354.384 92.816 355.192 92.504 355.784 91.88C356.392 91.24 356.696 90.328 356.696 89.144V81.776H359.432ZM367.842 95.216C366.802 95.216 365.866 95.032 365.034 94.664C364.218 94.28 363.57 93.768 363.09 93.128C362.61 92.472 362.354 91.744 362.322 90.944H365.154C365.202 91.504 365.466 91.976 365.946 92.36C366.442 92.728 367.058 92.912 367.794 92.912C368.562 92.912 369.154 92.768 369.57 92.48C370.002 92.176 370.218 91.792 370.218 91.328C370.218 90.832 369.978 90.464 369.498 90.224C369.034 89.984 368.29 89.72 367.266 89.432C366.274 89.16 365.466 88.896 364.842 88.64C364.218 88.384 363.674 87.992 363.21 87.464C362.762 86.936 362.538 86.24 362.538 85.376C362.538 84.672 362.746 84.032 363.162 83.456C363.578 82.864 364.17 82.4 364.938 82.064C365.722 81.728 366.618 81.56 367.626 81.56C369.13 81.56 370.338 81.944 371.25 82.712C372.178 83.464 372.674 84.496 372.738 85.808H370.002C369.954 85.216 369.714 84.744 369.282 84.392C368.85 84.04 368.266 83.864 367.53 83.864C366.81 83.864 366.258 84 365.874 84.272C365.49 84.544 365.298 84.904 365.298 85.352C365.298 85.704 365.426 86 365.682 86.24C365.938 86.48 366.25 86.672 366.618 86.816C366.986 86.944 367.53 87.112 368.25 87.32C369.21 87.576 369.994 87.84 370.602 88.112C371.226 88.368 371.762 88.752 372.21 89.264C372.658 89.776 372.89 90.456 372.906 91.304C372.906 92.056 372.698 92.728 372.282 93.32C371.866 93.912 371.274 94.376 370.506 94.712C369.754 95.048 368.866 95.216 367.842 95.216ZM379.055 84.008V91.328C379.055 91.824 379.167 92.184 379.391 92.408C379.631 92.616 380.031 92.72 380.591 92.72H382.271V95H380.111C378.879 95 377.935 94.712 377.279 94.136C376.623 93.56 376.295 92.624 376.295 91.328V84.008H374.735V81.776H376.295V78.488H379.055V81.776H382.271V84.008H379.055ZM393.763 83.72C394.227 83.112 394.859 82.6 395.659 82.184C396.459 81.768 397.363 81.56 398.371 81.56C399.523 81.56 400.571 81.848 401.515 82.424C402.475 82.984 403.227 83.776 403.771 84.8C404.315 85.824 404.587 87 404.587 88.328C404.587 89.656 404.315 90.848 403.771 91.904C403.227 92.944 402.475 93.76 401.515 94.352C400.571 94.928 399.523 95.216 398.371 95.216C397.363 95.216 396.467 95.016 395.683 94.616C394.899 94.2 394.259 93.688 393.763 93.08V101.288H391.027V81.776H393.763V83.72ZM401.803 88.328C401.803 87.416 401.611 86.632 401.227 85.976C400.859 85.304 400.363 84.8 399.739 84.464C399.131 84.112 398.475 83.936 397.771 83.936C397.083 83.936 396.427 84.112 395.803 84.464C395.195 84.816 394.699 85.328 394.315 86C393.947 86.672 393.763 87.464 393.763 88.376C393.763 89.288 393.947 90.088 394.315 90.776C394.699 91.448 395.195 91.96 395.803 92.312C396.427 92.664 397.083 92.84 397.771 92.84C398.475 92.84 399.131 92.664 399.739 92.312C400.363 91.944 400.859 91.416 401.227 90.728C401.611 90.04 401.803 89.24 401.803 88.328ZM410.028 77.24V95H407.292V77.24H410.028ZM412.708 88.328C412.708 87 412.98 85.824 413.524 84.8C414.084 83.776 414.836 82.984 415.78 82.424C416.74 81.848 417.796 81.56 418.948 81.56C419.988 81.56 420.892 81.768 421.66 82.184C422.444 82.584 423.068 83.088 423.532 83.696V81.776H426.292V95H423.532V93.032C423.068 93.656 422.436 94.176 421.636 94.592C420.836 95.008 419.924 95.216 418.9 95.216C417.764 95.216 416.724 94.928 415.78 94.352C414.836 93.76 414.084 92.944 413.524 91.904C412.98 90.848 412.708 89.656 412.708 88.328ZM423.532 88.376C423.532 87.464 423.34 86.672 422.956 86C422.588 85.328 422.1 84.816 421.492 84.464C420.884 84.112 420.228 83.936 419.524 83.936C418.82 83.936 418.164 84.112 417.556 84.464C416.948 84.8 416.452 85.304 416.068 85.976C415.7 86.632 415.516 87.416 415.516 88.328C415.516 89.24 415.7 90.04 416.068 90.728C416.452 91.416 416.948 91.944 417.556 92.312C418.18 92.664 418.836 92.84 419.524 92.84C420.228 92.84 420.884 92.664 421.492 92.312C422.1 91.96 422.588 91.448 422.956 90.776C423.34 90.088 423.532 89.288 423.532 88.376ZM436.558 81.56C437.598 81.56 438.526 81.776 439.342 82.208C440.174 82.64 440.822 83.28 441.286 84.128C441.75 84.976 441.982 86 441.982 87.2V95H439.27V87.608C439.27 86.424 438.974 85.52 438.382 84.896C437.79 84.256 436.982 83.936 435.958 83.936C434.934 83.936 434.118 84.256 433.51 84.896C432.918 85.52 432.622 86.424 432.622 87.608V95H429.886V81.776H432.622V83.288C433.07 82.744 433.638 82.32 434.326 82.016C435.03 81.712 435.774 81.56 436.558 81.56ZM448.664 84.008V91.328C448.664 91.824 448.776 92.184 449 92.408C449.24 92.616 449.64 92.72 450.2 92.72H451.88V95H449.72C448.488 95 447.544 94.712 446.888 94.136C446.232 93.56 445.904 92.624 445.904 91.328V84.008H444.344V81.776H445.904V78.488H448.664V81.776H451.88V84.008H448.664ZM472.612 81.776V95H469.876V93.44C469.444 93.984 468.876 94.416 468.172 94.736C467.484 95.04 466.748 95.192 465.964 95.192C464.924 95.192 463.988 94.976 463.156 94.544C462.34 94.112 461.692 93.472 461.212 92.624C460.748 91.776 460.516 90.752 460.516 89.552V81.776H463.228V89.144C463.228 90.328 463.524 91.24 464.116 91.88C464.708 92.504 465.516 92.816 466.54 92.816C467.564 92.816 468.372 92.504 468.964 91.88C469.572 91.24 469.876 90.328 469.876 89.144V81.776H472.612ZM478.958 83.72C479.422 83.112 480.054 82.6 480.854 82.184C481.654 81.768 482.558 81.56 483.566 81.56C484.718 81.56 485.766 81.848 486.71 82.424C487.67 82.984 488.422 83.776 488.966 84.8C489.51 85.824 489.782 87 489.782 88.328C489.782 89.656 489.51 90.848 488.966 91.904C488.422 92.944 487.67 93.76 486.71 94.352C485.766 94.928 484.718 95.216 483.566 95.216C482.558 95.216 481.662 95.016 480.878 94.616C480.094 94.2 479.454 93.688 478.958 93.08V101.288H476.222V81.776H478.958V83.72ZM486.998 88.328C486.998 87.416 486.806 86.632 486.422 85.976C486.054 85.304 485.558 84.8 484.934 84.464C484.326 84.112 483.67 83.936 482.966 83.936C482.278 83.936 481.622 84.112 480.998 84.464C480.39 84.816 479.894 85.328 479.51 86C479.142 86.672 478.958 87.464 478.958 88.376C478.958 89.288 479.142 90.088 479.51 90.776C479.894 91.448 480.39 91.96 480.998 92.312C481.622 92.664 482.278 92.84 482.966 92.84C483.67 92.84 484.326 92.664 484.934 92.312C485.558 91.944 486.054 91.416 486.422 90.728C486.806 90.04 486.998 89.24 486.998 88.328ZM500.114 80.024C499.618 80.024 499.202 79.856 498.866 79.52C498.53 79.184 498.362 78.768 498.362 78.272C498.362 77.776 498.53 77.36 498.866 77.024C499.202 76.688 499.618 76.52 500.114 76.52C500.594 76.52 501.002 76.688 501.338 77.024C501.674 77.36 501.842 77.776 501.842 78.272C501.842 78.768 501.674 79.184 501.338 79.52C501.002 79.856 500.594 80.024 500.114 80.024ZM501.458 81.776V95H498.722V81.776H501.458ZM511.722 81.56C512.762 81.56 513.69 81.776 514.506 82.208C515.338 82.64 515.986 83.28 516.45 84.128C516.914 84.976 517.146 86 517.146 87.2V95H514.434V87.608C514.434 86.424 514.138 85.52 513.546 84.896C512.954 84.256 512.146 83.936 511.122 83.936C510.098 83.936 509.282 84.256 508.674 84.896C508.082 85.52 507.786 86.424 507.786 87.608V95H505.05V81.776H507.786V83.288C508.234 82.744 508.802 82.32 509.49 82.016C510.194 81.712 510.938 81.56 511.722 81.56ZM538.774 81.776L530.662 101.216H527.83L530.518 94.784L525.31 81.776H528.358L532.078 91.856L535.942 81.776H538.774ZM546.575 95.216C545.327 95.216 544.199 94.936 543.191 94.376C542.183 93.8 541.391 93 540.815 91.976C540.239 90.936 539.951 89.736 539.951 88.376C539.951 87.032 540.247 85.84 540.839 84.8C541.431 83.76 542.239 82.96 543.263 82.4C544.287 81.84 545.431 81.56 546.695 81.56C547.959 81.56 549.103 81.84 550.127 82.4C551.151 82.96 551.959 83.76 552.551 84.8C553.143 85.84 553.439 87.032 553.439 88.376C553.439 89.72 553.135 90.912 552.527 91.952C551.919 92.992 551.087 93.8 550.031 94.376C548.991 94.936 547.839 95.216 546.575 95.216ZM546.575 92.84C547.279 92.84 547.935 92.672 548.543 92.336C549.167 92 549.671 91.496 550.055 90.824C550.439 90.152 550.631 89.336 550.631 88.376C550.631 87.416 550.447 86.608 550.079 85.952C549.711 85.28 549.223 84.776 548.615 84.44C548.007 84.104 547.351 83.936 546.647 83.936C545.943 83.936 545.287 84.104 544.679 84.44C544.087 84.776 543.615 85.28 543.263 85.952C542.911 86.608 542.735 87.416 542.735 88.376C542.735 89.8 543.095 90.904 543.815 91.688C544.551 92.456 545.471 92.84 546.575 92.84ZM568.12 81.776V95H565.384V93.44C564.952 93.984 564.384 94.416 563.68 94.736C562.992 95.04 562.256 95.192 561.472 95.192C560.432 95.192 559.496 94.976 558.664 94.544C557.848 94.112 557.2 93.472 556.72 92.624C556.256 91.776 556.024 90.752 556.024 89.552V81.776H558.736V89.144C558.736 90.328 559.032 91.24 559.624 91.88C560.216 92.504 561.024 92.816 562.048 92.816C563.072 92.816 563.88 92.504 564.472 91.88C565.08 91.24 565.384 90.328 565.384 89.144V81.776H568.12ZM574.466 83.696C574.866 83.024 575.394 82.504 576.05 82.136C576.722 81.752 577.514 81.56 578.426 81.56V84.392H577.73C576.658 84.392 575.842 84.664 575.282 85.208C574.738 85.752 574.466 86.696 574.466 88.04V95H571.73V81.776H574.466V83.696ZM7.128 119.56C8.152 119.56 9.056 119.768 9.84 120.184C10.64 120.584 11.264 121.088 11.712 121.696V119.776H14.472V133.216C14.472 134.432 14.216 135.512 13.704 136.456C13.192 137.416 12.448 138.168 11.472 138.712C10.512 139.256 9.36 139.528 8.016 139.528C6.224 139.528 4.736 139.104 3.552 138.256C2.368 137.424 1.696 136.288 1.536 134.848H4.248C4.456 135.536 4.896 136.088 5.568 136.504C6.256 136.936 7.072 137.152 8.016 137.152C9.12 137.152 10.008 136.816 10.68 136.144C11.368 135.472 11.712 134.496 11.712 133.216V131.008C11.248 131.632 10.616 132.16 9.816 132.592C9.032 133.008 8.136 133.216 7.128 133.216C5.976 133.216 4.92 132.928 3.96 132.352C3.016 131.76 2.264 130.944 1.704 129.904C1.16 128.848 0.888 127.656 0.888 126.328C0.888 125 1.16 123.824 1.704 122.8C2.264 121.776 3.016 120.984 3.96 120.424C4.92 119.848 5.976 119.56 7.128 119.56ZM11.712 126.376C11.712 125.464 11.52 124.672 11.136 124C10.768 123.328 10.28 122.816 9.672 122.464C9.064 122.112 8.408 121.936 7.704 121.936C7 121.936 6.344 122.112 5.736 122.464C5.128 122.8 4.632 123.304 4.248 123.976C3.88 124.632 3.696 125.416 3.696 126.328C3.696 127.24 3.88 128.04 4.248 128.728C4.632 129.416 5.128 129.944 5.736 130.312C6.36 130.664 7.016 130.84 7.704 130.84C8.408 130.84 9.064 130.664 9.672 130.312C10.28 129.96 10.768 129.448 11.136 128.776C11.52 128.088 11.712 127.288 11.712 126.376ZM17.1536 126.328C17.1536 125 17.4256 123.824 17.9696 122.8C18.5296 121.776 19.2816 120.984 20.2256 120.424C21.1856 119.848 22.2416 119.56 23.3936 119.56C24.4336 119.56 25.3376 119.768 26.1056 120.184C26.8896 120.584 27.5136 121.088 27.9776 121.696V119.776H30.7376V133H27.9776V131.032C27.5136 131.656 26.8816 132.176 26.0816 132.592C25.2816 133.008 24.3696 133.216 23.3456 133.216C22.2096 133.216 21.1696 132.928 20.2256 132.352C19.2816 131.76 18.5296 130.944 17.9696 129.904C17.4256 128.848 17.1536 127.656 17.1536 126.328ZM27.9776 126.376C27.9776 125.464 27.7856 124.672 27.4016 124C27.0336 123.328 26.5456 122.816 25.9376 122.464C25.3296 122.112 24.6736 121.936 23.9696 121.936C23.2656 121.936 22.6096 122.112 22.0016 122.464C21.3936 122.8 20.8976 123.304 20.5136 123.976C20.1456 124.632 19.9616 125.416 19.9616 126.328C19.9616 127.24 20.1456 128.04 20.5136 128.728C20.8976 129.416 21.3936 129.944 22.0016 130.312C22.6256 130.664 23.2816 130.84 23.9696 130.84C24.6736 130.84 25.3296 130.664 25.9376 130.312C26.5456 129.96 27.0336 129.448 27.4016 128.776C27.7856 128.088 27.9776 127.288 27.9776 126.376ZM37.0673 121.696C37.4673 121.024 37.9953 120.504 38.6513 120.136C39.3233 119.752 40.1153 119.56 41.0273 119.56V122.392H40.3313C39.2593 122.392 38.4433 122.664 37.8833 123.208C37.3393 123.752 37.0673 124.696 37.0673 126.04V133H34.3313V119.776H37.0673V121.696ZM42.6302 126.328C42.6302 125 42.9022 123.824 43.4462 122.8C44.0062 121.776 44.7582 120.984 45.7022 120.424C46.6622 119.848 47.7262 119.56 48.8942 119.56C49.7582 119.56 50.6062 119.752 51.4382 120.136C52.2862 120.504 52.9582 121 53.4542 121.624V115.24H56.2142V133H53.4542V131.008C53.0062 131.648 52.3822 132.176 51.5822 132.592C50.7982 133.008 49.8942 133.216 48.8702 133.216C47.7182 133.216 46.6622 132.928 45.7022 132.352C44.7582 131.76 44.0062 130.944 43.4462 129.904C42.9022 128.848 42.6302 127.656 42.6302 126.328ZM53.4542 126.376C53.4542 125.464 53.2622 124.672 52.8782 124C52.5102 123.328 52.0222 122.816 51.4142 122.464C50.8062 122.112 50.1502 121.936 49.4462 121.936C48.7422 121.936 48.0862 122.112 47.4782 122.464C46.8702 122.8 46.3742 123.304 45.9902 123.976C45.6222 124.632 45.4382 125.416 45.4382 126.328C45.4382 127.24 45.6222 128.04 45.9902 128.728C46.3742 129.416 46.8702 129.944 47.4782 130.312C48.1022 130.664 48.7582 130.84 49.4462 130.84C50.1502 130.84 50.8062 130.664 51.4142 130.312C52.0222 129.96 52.5102 129.448 52.8782 128.776C53.2622 128.088 53.4542 127.288 53.4542 126.376ZM71.9278 126.064C71.9278 126.56 71.8958 127.008 71.8318 127.408H61.7278C61.8078 128.464 62.1998 129.312 62.9038 129.952C63.6078 130.592 64.4718 130.912 65.4958 130.912C66.9678 130.912 68.0078 130.296 68.6158 129.064H71.5678C71.1678 130.28 70.4398 131.28 69.3838 132.064C68.3438 132.832 67.0478 133.216 65.4958 133.216C64.2318 133.216 63.0958 132.936 62.0878 132.376C61.0958 131.8 60.3118 131 59.7358 129.976C59.1758 128.936 58.8958 127.736 58.8958 126.376C58.8958 125.016 59.1678 123.824 59.7118 122.8C60.2718 121.76 61.0478 120.96 62.0398 120.4C63.0478 119.84 64.1998 119.56 65.4958 119.56C66.7438 119.56 67.8558 119.832 68.8318 120.376C69.8078 120.92 70.5678 121.688 71.1118 122.68C71.6558 123.656 71.9278 124.784 71.9278 126.064ZM69.0718 125.2C69.0558 124.192 68.6958 123.384 67.9918 122.776C67.2878 122.168 66.4158 121.864 65.3758 121.864C64.4318 121.864 63.6238 122.168 62.9518 122.776C62.2798 123.368 61.8798 124.176 61.7518 125.2H69.0718ZM81.2923 119.56C82.3323 119.56 83.2603 119.776 84.0763 120.208C84.9083 120.64 85.5563 121.28 86.0203 122.128C86.4843 122.976 86.7163 124 86.7163 125.2V133H84.0043V125.608C84.0043 124.424 83.7083 123.52 83.1163 122.896C82.5243 122.256 81.7163 121.936 80.6923 121.936C79.6683 121.936 78.8523 122.256 78.2443 122.896C77.6523 123.52 77.3563 124.424 77.3563 125.608V133H74.6203V119.776H77.3563V121.288C77.8043 120.744 78.3723 120.32 79.0603 120.016C79.7643 119.712 80.5083 119.56 81.2923 119.56ZM101.985 122.008H99.5366V133H96.7766V122.008H95.2166V119.776H96.7766V118.84C96.7766 117.32 97.1766 116.216 97.9766 115.528C98.7926 114.824 100.065 114.472 101.793 114.472V116.752C100.961 116.752 100.377 116.912 100.041 117.232C99.7046 117.536 99.5366 118.072 99.5366 118.84V119.776H101.985V122.008ZM110.145 133.216C108.897 133.216 107.769 132.936 106.761 132.376C105.753 131.8 104.961 131 104.385 129.976C103.809 128.936 103.521 127.736 103.521 126.376C103.521 125.032 103.817 123.84 104.409 122.8C105.001 121.76 105.809 120.96 106.833 120.4C107.857 119.84 109.001 119.56 110.265 119.56C111.529 119.56 112.673 119.84 113.697 120.4C114.721 120.96 115.529 121.76 116.121 122.8C116.713 123.84 117.009 125.032 117.009 126.376C117.009 127.72 116.705 128.912 116.097 129.952C115.489 130.992 114.657 131.8 113.601 132.376C112.561 132.936 111.409 133.216 110.145 133.216ZM110.145 130.84C110.849 130.84 111.505 130.672 112.113 130.336C112.737 130 113.241 129.496 113.625 128.824C114.009 128.152 114.201 127.336 114.201 126.376C114.201 125.416 114.017 124.608 113.649 123.952C113.281 123.28 112.793 122.776 112.185 122.44C111.577 122.104 110.921 121.936 110.217 121.936C109.513 121.936 108.857 122.104 108.249 122.44C107.657 122.776 107.185 123.28 106.833 123.952C106.481 124.608 106.305 125.416 106.305 126.376C106.305 127.8 106.665 128.904 107.385 129.688C108.121 130.456 109.041 130.84 110.145 130.84ZM122.45 121.696C122.85 121.024 123.378 120.504 124.034 120.136C124.706 119.752 125.498 119.56 126.41 119.56V122.392H125.714C124.642 122.392 123.826 122.664 123.266 123.208C122.722 123.752 122.45 124.696 122.45 126.04V133H119.714V119.776H122.45V121.696ZM136.551 118.024C136.055 118.024 135.639 117.856 135.303 117.52C134.967 117.184 134.799 116.768 134.799 116.272C134.799 115.776 134.967 115.36 135.303 115.024C135.639 114.688 136.055 114.52 136.551 114.52C137.031 114.52 137.439 114.688 137.775 115.024C138.111 115.36 138.279 115.776 138.279 116.272C138.279 116.768 138.111 117.184 137.775 117.52C137.439 117.856 137.031 118.024 136.551 118.024ZM137.895 119.776V133H135.159V119.776H137.895ZM148.16 119.56C149.2 119.56 150.128 119.776 150.944 120.208C151.776 120.64 152.424 121.28 152.888 122.128C153.352 122.976 153.584 124 153.584 125.2V133H150.872V125.608C150.872 124.424 150.576 123.52 149.984 122.896C149.392 122.256 148.584 121.936 147.56 121.936C146.536 121.936 145.72 122.256 145.112 122.896C144.52 123.52 144.224 124.424 144.224 125.608V133H141.488V119.776H144.224V121.288C144.672 120.744 145.24 120.32 145.928 120.016C146.632 119.712 147.376 119.56 148.16 119.56ZM161.873 133.216C160.833 133.216 159.897 133.032 159.065 132.664C158.249 132.28 157.601 131.768 157.121 131.128C156.641 130.472 156.385 129.744 156.353 128.944H159.185C159.233 129.504 159.497 129.976 159.977 130.36C160.473 130.728 161.089 130.912 161.825 130.912C162.593 130.912 163.185 130.768 163.601 130.48C164.033 130.176 164.249 129.792 164.249 129.328C164.249 128.832 164.009 128.464 163.529 128.224C163.065 127.984 162.321 127.72 161.297 127.432C160.305 127.16 159.497 126.896 158.873 126.64C158.249 126.384 157.705 125.992 157.241 125.464C156.793 124.936 156.569 124.24 156.569 123.376C156.569 122.672 156.777 122.032 157.193 121.456C157.609 120.864 158.201 120.4 158.969 120.064C159.753 119.728 160.649 119.56 161.657 119.56C163.161 119.56 164.369 119.944 165.281 120.712C166.209 121.464 166.705 122.496 166.769 123.808H164.033C163.985 123.216 163.745 122.744 163.313 122.392C162.881 122.04 162.297 121.864 161.561 121.864C160.841 121.864 160.289 122 159.905 122.272C159.521 122.544 159.329 122.904 159.329 123.352C159.329 123.704 159.457 124 159.713 124.24C159.969 124.48 160.281 124.672 160.649 124.816C161.017 124.944 161.561 125.112 162.281 125.32C163.241 125.576 164.025 125.84 164.633 126.112C165.257 126.368 165.793 126.752 166.241 127.264C166.689 127.776 166.921 128.456 166.937 129.304C166.937 130.056 166.729 130.728 166.313 131.32C165.897 131.912 165.305 132.376 164.537 132.712C163.785 133.048 162.897 133.216 161.873 133.216ZM173.086 122.008V129.328C173.086 129.824 173.198 130.184 173.422 130.408C173.662 130.616 174.062 130.72 174.622 130.72H176.302V133H174.142C172.91 133 171.966 132.712 171.31 132.136C170.654 131.56 170.326 130.624 170.326 129.328V122.008H168.766V119.776H170.326V116.488H173.086V119.776H176.302V122.008H173.086ZM177.911 126.328C177.911 125 178.183 123.824 178.727 122.8C179.287 121.776 180.039 120.984 180.983 120.424C181.943 119.848 182.999 119.56 184.151 119.56C185.191 119.56 186.095 119.768 186.863 120.184C187.647 120.584 188.271 121.088 188.735 121.696V119.776H191.495V133H188.735V131.032C188.271 131.656 187.639 132.176 186.839 132.592C186.039 133.008 185.127 133.216 184.103 133.216C182.967 133.216 181.927 132.928 180.983 132.352C180.039 131.76 179.287 130.944 178.727 129.904C178.183 128.848 177.911 127.656 177.911 126.328ZM188.735 126.376C188.735 125.464 188.543 124.672 188.159 124C187.791 123.328 187.303 122.816 186.695 122.464C186.087 122.112 185.431 121.936 184.727 121.936C184.023 121.936 183.367 122.112 182.759 122.464C182.151 122.8 181.655 123.304 181.271 123.976C180.903 124.632 180.719 125.416 180.719 126.328C180.719 127.24 180.903 128.04 181.271 128.728C181.655 129.416 182.151 129.944 182.759 130.312C183.383 130.664 184.039 130.84 184.727 130.84C185.431 130.84 186.087 130.664 186.695 130.312C187.303 129.96 187.791 129.448 188.159 128.776C188.543 128.088 188.735 127.288 188.735 126.376ZM201.761 119.56C202.801 119.56 203.729 119.776 204.545 120.208C205.377 120.64 206.025 121.28 206.489 122.128C206.953 122.976 207.185 124 207.185 125.2V133H204.473V125.608C204.473 124.424 204.177 123.52 203.585 122.896C202.993 122.256 202.185 121.936 201.161 121.936C200.137 121.936 199.321 122.256 198.713 122.896C198.121 123.52 197.825 124.424 197.825 125.608V133H195.089V119.776H197.825V121.288C198.273 120.744 198.841 120.32 199.529 120.016C200.233 119.712 200.977 119.56 201.761 119.56ZM213.867 122.008V129.328C213.867 129.824 213.979 130.184 214.203 130.408C214.443 130.616 214.843 130.72 215.403 130.72H217.083V133H214.923C213.691 133 212.747 132.712 212.091 132.136C211.435 131.56 211.107 130.624 211.107 129.328V122.008H209.547V119.776H211.107V116.488H213.867V119.776H217.083V122.008H213.867ZM227.231 118.024C226.735 118.024 226.319 117.856 225.983 117.52C225.647 117.184 225.479 116.768 225.479 116.272C225.479 115.776 225.647 115.36 225.983 115.024C226.319 114.688 226.735 114.52 227.231 114.52C227.711 114.52 228.119 114.688 228.455 115.024C228.791 115.36 228.959 115.776 228.959 116.272C228.959 116.768 228.791 117.184 228.455 117.52C228.119 117.856 227.711 118.024 227.231 118.024ZM228.575 119.776V133H225.839V119.776H228.575ZM248.175 119.56C249.215 119.56 250.143 119.776 250.959 120.208C251.791 120.64 252.439 121.28 252.903 122.128C253.383 122.976 253.623 124 253.623 125.2V133H250.911V125.608C250.911 124.424 250.615 123.52 250.023 122.896C249.431 122.256 248.623 121.936 247.599 121.936C246.575 121.936 245.759 122.256 245.151 122.896C244.559 123.52 244.263 124.424 244.263 125.608V133H241.551V125.608C241.551 124.424 241.255 123.52 240.663 122.896C240.071 122.256 239.263 121.936 238.239 121.936C237.215 121.936 236.399 122.256 235.791 122.896C235.199 123.52 234.903 124.424 234.903 125.608V133H232.167V119.776H234.903V121.288C235.351 120.744 235.919 120.32 236.607 120.016C237.295 119.712 238.031 119.56 238.815 119.56C239.871 119.56 240.815 119.784 241.647 120.232C242.479 120.68 243.119 121.328 243.567 122.176C243.967 121.376 244.591 120.744 245.439 120.28C246.287 119.8 247.199 119.56 248.175 119.56ZM259.841 121.72C260.305 121.112 260.937 120.6 261.737 120.184C262.537 119.768 263.441 119.56 264.449 119.56C265.601 119.56 266.649 119.848 267.593 120.424C268.553 120.984 269.305 121.776 269.849 122.8C270.393 123.824 270.665 125 270.665 126.328C270.665 127.656 270.393 128.848 269.849 129.904C269.305 130.944 268.553 131.76 267.593 132.352C266.649 132.928 265.601 133.216 264.449 133.216C263.441 133.216 262.545 133.016 261.761 132.616C260.977 132.2 260.337 131.688 259.841 131.08V139.288H257.105V119.776H259.841V121.72ZM267.881 126.328C267.881 125.416 267.689 124.632 267.305 123.976C266.937 123.304 266.441 122.8 265.817 122.464C265.209 122.112 264.553 121.936 263.849 121.936C263.161 121.936 262.505 122.112 261.881 122.464C261.273 122.816 260.777 123.328 260.393 124C260.025 124.672 259.841 125.464 259.841 126.376C259.841 127.288 260.025 128.088 260.393 128.776C260.777 129.448 261.273 129.96 261.881 130.312C262.505 130.664 263.161 130.84 263.849 130.84C264.553 130.84 265.209 130.664 265.817 130.312C266.441 129.944 266.937 129.416 267.305 128.728C267.689 128.04 267.881 127.24 267.881 126.328ZM272.458 126.328C272.458 125 272.73 123.824 273.274 122.8C273.834 121.776 274.586 120.984 275.53 120.424C276.49 119.848 277.546 119.56 278.698 119.56C279.738 119.56 280.642 119.768 281.41 120.184C282.194 120.584 282.818 121.088 283.282 121.696V119.776H286.042V133H283.282V131.032C282.818 131.656 282.186 132.176 281.386 132.592C280.586 133.008 279.674 133.216 278.65 133.216C277.514 133.216 276.474 132.928 275.53 132.352C274.586 131.76 273.834 130.944 273.274 129.904C272.73 128.848 272.458 127.656 272.458 126.328ZM283.282 126.376C283.282 125.464 283.09 124.672 282.706 124C282.338 123.328 281.85 122.816 281.242 122.464C280.634 122.112 279.978 121.936 279.274 121.936C278.57 121.936 277.914 122.112 277.306 122.464C276.698 122.8 276.202 123.304 275.818 123.976C275.45 124.632 275.266 125.416 275.266 126.328C275.266 127.24 275.45 128.04 275.818 128.728C276.202 129.416 276.698 129.944 277.306 130.312C277.93 130.664 278.586 130.84 279.274 130.84C279.978 130.84 280.634 130.664 281.242 130.312C281.85 129.96 282.338 129.448 282.706 128.776C283.09 128.088 283.282 127.288 283.282 126.376ZM288.724 126.376C288.724 125.016 288.996 123.824 289.54 122.8C290.1 121.76 290.868 120.96 291.844 120.4C292.82 119.84 293.94 119.56 295.204 119.56C296.804 119.56 298.124 119.944 299.164 120.712C300.22 121.464 300.932 122.544 301.3 123.952H298.348C298.108 123.296 297.724 122.784 297.196 122.416C296.668 122.048 296.004 121.864 295.204 121.864C294.084 121.864 293.188 122.264 292.516 123.064C291.86 123.848 291.532 124.952 291.532 126.376C291.532 127.8 291.86 128.912 292.516 129.712C293.188 130.512 294.084 130.912 295.204 130.912C296.788 130.912 297.836 130.216 298.348 128.824H301.3C300.916 130.168 300.196 131.24 299.14 132.04C298.084 132.824 296.772 133.216 295.204 133.216C293.94 133.216 292.82 132.936 291.844 132.376C290.868 131.8 290.1 131 289.54 129.976C288.996 128.936 288.724 127.736 288.724 126.376ZM307.219 122.008V129.328C307.219 129.824 307.331 130.184 307.555 130.408C307.795 130.616 308.195 130.72 308.755 130.72H310.435V133H308.275C307.043 133 306.099 132.712 305.443 132.136C304.787 131.56 304.459 130.624 304.459 129.328V122.008H302.899V119.776H304.459V116.488H307.219V119.776H310.435V122.008H307.219ZM318.279 126.328C318.279 125 318.551 123.824 319.095 122.8C319.655 121.776 320.407 120.984 321.351 120.424C322.311 119.848 323.367 119.56 324.519 119.56C325.559 119.56 326.463 119.768 327.231 120.184C328.015 120.584 328.639 121.088 329.103 121.696V119.776H331.863V133H329.103V131.032C328.639 131.656 328.007 132.176 327.207 132.592C326.407 133.008 325.495 133.216 324.471 133.216C323.335 133.216 322.295 132.928 321.351 132.352C320.407 131.76 319.655 130.944 319.095 129.904C318.551 128.848 318.279 127.656 318.279 126.328ZM329.103 126.376C329.103 125.464 328.911 124.672 328.527 124C328.159 123.328 327.671 122.816 327.063 122.464C326.455 122.112 325.799 121.936 325.095 121.936C324.391 121.936 323.735 122.112 323.127 122.464C322.519 122.8 322.023 123.304 321.639 123.976C321.271 124.632 321.087 125.416 321.087 126.328C321.087 127.24 321.271 128.04 321.639 128.728C322.023 129.416 322.519 129.944 323.127 130.312C323.751 130.664 324.407 130.84 325.095 130.84C325.799 130.84 326.455 130.664 327.063 130.312C327.671 129.96 328.159 129.448 328.527 128.776C328.911 128.088 329.103 127.288 329.103 126.376ZM342.128 119.56C343.168 119.56 344.096 119.776 344.912 120.208C345.744 120.64 346.392 121.28 346.856 122.128C347.32 122.976 347.552 124 347.552 125.2V133H344.84V125.608C344.84 124.424 344.544 123.52 343.952 122.896C343.36 122.256 342.552 121.936 341.528 121.936C340.504 121.936 339.688 122.256 339.08 122.896C338.488 123.52 338.192 124.424 338.192 125.608V133H335.456V119.776H338.192V121.288C338.64 120.744 339.208 120.32 339.896 120.016C340.6 119.712 341.344 119.56 342.128 119.56ZM350.13 126.328C350.13 125 350.402 123.824 350.946 122.8C351.506 121.776 352.258 120.984 353.202 120.424C354.162 119.848 355.226 119.56 356.394 119.56C357.258 119.56 358.106 119.752 358.938 120.136C359.786 120.504 360.458 121 360.954 121.624V115.24H363.714V133H360.954V131.008C360.506 131.648 359.882 132.176 359.082 132.592C358.298 133.008 357.394 133.216 356.37 133.216C355.218 133.216 354.162 132.928 353.202 132.352C352.258 131.76 351.506 130.944 350.946 129.904C350.402 128.848 350.13 127.656 350.13 126.328ZM360.954 126.376C360.954 125.464 360.762 124.672 360.378 124C360.01 123.328 359.522 122.816 358.914 122.464C358.306 122.112 357.65 121.936 356.946 121.936C356.242 121.936 355.586 122.112 354.978 122.464C354.37 122.8 353.874 123.304 353.49 123.976C353.122 124.632 352.938 125.416 352.938 126.328C352.938 127.24 353.122 128.04 353.49 128.728C353.874 129.416 354.37 129.944 354.978 130.312C355.602 130.664 356.258 130.84 356.946 130.84C357.65 130.84 358.306 130.664 358.914 130.312C359.522 129.96 360.01 129.448 360.378 128.776C360.762 128.088 360.954 127.288 360.954 126.376ZM378.87 119.56C379.894 119.56 380.798 119.768 381.582 120.184C382.382 120.584 383.006 121.088 383.454 121.696V119.776H386.214V133.216C386.214 134.432 385.958 135.512 385.446 136.456C384.934 137.416 384.19 138.168 383.214 138.712C382.254 139.256 381.102 139.528 379.758 139.528C377.966 139.528 376.478 139.104 375.294 138.256C374.11 137.424 373.438 136.288 373.278 134.848H375.99C376.198 135.536 376.638 136.088 377.31 136.504C377.998 136.936 378.814 137.152 379.758 137.152C380.862 137.152 381.75 136.816 382.422 136.144C383.11 135.472 383.454 134.496 383.454 133.216V131.008C382.99 131.632 382.358 132.16 381.558 132.592C380.774 133.008 379.878 133.216 378.87 133.216C377.718 133.216 376.662 132.928 375.702 132.352C374.758 131.76 374.006 130.944 373.446 129.904C372.902 128.848 372.63 127.656 372.63 126.328C372.63 125 372.902 123.824 373.446 122.8C374.006 121.776 374.758 120.984 375.702 120.424C376.662 119.848 377.718 119.56 378.87 119.56ZM383.454 126.376C383.454 125.464 383.262 124.672 382.878 124C382.51 123.328 382.022 122.816 381.414 122.464C380.806 122.112 380.15 121.936 379.446 121.936C378.742 121.936 378.086 122.112 377.478 122.464C376.87 122.8 376.374 123.304 375.99 123.976C375.622 124.632 375.438 125.416 375.438 126.328C375.438 127.24 375.622 128.04 375.99 128.728C376.374 129.416 376.87 129.944 377.478 130.312C378.102 130.664 378.758 130.84 379.446 130.84C380.15 130.84 380.806 130.664 381.414 130.312C382.022 129.96 382.51 129.448 382.878 128.776C383.262 128.088 383.454 127.288 383.454 126.376ZM392.544 121.696C392.944 121.024 393.472 120.504 394.128 120.136C394.8 119.752 395.592 119.56 396.504 119.56V122.392H395.808C394.736 122.392 393.92 122.664 393.36 123.208C392.816 123.752 392.544 124.696 392.544 126.04V133H389.808V119.776H392.544V121.696ZM404.755 133.216C403.507 133.216 402.379 132.936 401.371 132.376C400.363 131.8 399.571 131 398.995 129.976C398.419 128.936 398.131 127.736 398.131 126.376C398.131 125.032 398.427 123.84 399.019 122.8C399.611 121.76 400.419 120.96 401.443 120.4C402.467 119.84 403.611 119.56 404.875 119.56C406.139 119.56 407.283 119.84 408.307 120.4C409.331 120.96 410.139 121.76 410.731 122.8C411.323 123.84 411.619 125.032 411.619 126.376C411.619 127.72 411.315 128.912 410.707 129.952C410.099 130.992 409.267 131.8 408.211 132.376C407.171 132.936 406.019 133.216 404.755 133.216ZM404.755 130.84C405.459 130.84 406.115 130.672 406.723 130.336C407.347 130 407.851 129.496 408.235 128.824C408.619 128.152 408.811 127.336 408.811 126.376C408.811 125.416 408.627 124.608 408.259 123.952C407.891 123.28 407.403 122.776 406.795 122.44C406.187 122.104 405.531 121.936 404.827 121.936C404.123 121.936 403.467 122.104 402.859 122.44C402.267 122.776 401.795 123.28 401.443 123.952C401.091 124.608 400.915 125.416 400.915 126.376C400.915 127.8 401.275 128.904 401.995 129.688C402.731 130.456 403.651 130.84 404.755 130.84ZM432.083 119.776L427.979 133H425.099L422.435 123.232L419.771 133H416.891L412.763 119.776H415.547L418.307 130.408L421.115 119.776H423.971L426.659 130.36L429.395 119.776H432.083ZM445.907 122.008H443.459V133H440.699V122.008H439.139V119.776H440.699V118.84C440.699 117.32 441.099 116.216 441.899 115.528C442.715 114.824 443.987 114.472 445.715 114.472V116.752C444.883 116.752 444.299 116.912 443.963 117.232C443.627 117.536 443.459 118.072 443.459 118.84V119.776H445.907V122.008ZM447.419 126.328C447.419 125 447.691 123.824 448.235 122.8C448.795 121.776 449.547 120.984 450.491 120.424C451.451 119.848 452.507 119.56 453.659 119.56C454.699 119.56 455.603 119.768 456.371 120.184C457.155 120.584 457.779 121.088 458.243 121.696V119.776H461.003V133H458.243V131.032C457.779 131.656 457.147 132.176 456.347 132.592C455.547 133.008 454.635 133.216 453.611 133.216C452.475 133.216 451.435 132.928 450.491 132.352C449.547 131.76 448.795 130.944 448.235 129.904C447.691 128.848 447.419 127.656 447.419 126.328ZM458.243 126.376C458.243 125.464 458.051 124.672 457.667 124C457.299 123.328 456.811 122.816 456.203 122.464C455.595 122.112 454.939 121.936 454.235 121.936C453.531 121.936 452.875 122.112 452.267 122.464C451.659 122.8 451.163 123.304 450.779 123.976C450.411 124.632 450.227 125.416 450.227 126.328C450.227 127.24 450.411 128.04 450.779 128.728C451.163 129.416 451.659 129.944 452.267 130.312C452.891 130.664 453.547 130.84 454.235 130.84C454.939 130.84 455.595 130.664 456.203 130.312C456.811 129.96 457.299 129.448 457.667 128.776C458.051 128.088 458.243 127.288 458.243 126.376ZM469.397 133.216C468.357 133.216 467.421 133.032 466.589 132.664C465.773 132.28 465.125 131.768 464.645 131.128C464.165 130.472 463.909 129.744 463.877 128.944H466.709C466.757 129.504 467.021 129.976 467.501 130.36C467.997 130.728 468.613 130.912 469.349 130.912C470.117 130.912 470.709 130.768 471.125 130.48C471.557 130.176 471.773 129.792 471.773 129.328C471.773 128.832 471.533 128.464 471.053 128.224C470.589 127.984 469.845 127.72 468.821 127.432C467.829 127.16 467.021 126.896 466.397 126.64C465.773 126.384 465.229 125.992 464.765 125.464C464.317 124.936 464.093 124.24 464.093 123.376C464.093 122.672 464.301 122.032 464.717 121.456C465.133 120.864 465.725 120.4 466.493 120.064C467.277 119.728 468.173 119.56 469.181 119.56C470.685 119.56 471.893 119.944 472.805 120.712C473.733 121.464 474.229 122.496 474.293 123.808H471.557C471.509 123.216 471.269 122.744 470.837 122.392C470.405 122.04 469.821 121.864 469.085 121.864C468.365 121.864 467.813 122 467.429 122.272C467.045 122.544 466.853 122.904 466.853 123.352C466.853 123.704 466.981 124 467.237 124.24C467.493 124.48 467.805 124.672 468.173 124.816C468.541 124.944 469.085 125.112 469.805 125.32C470.765 125.576 471.549 125.84 472.157 126.112C472.781 126.368 473.317 126.752 473.765 127.264C474.213 127.776 474.445 128.456 474.461 129.304C474.461 130.056 474.253 130.728 473.837 131.32C473.421 131.912 472.829 132.376 472.061 132.712C471.309 133.048 470.421 133.216 469.397 133.216ZM480.609 122.008V129.328C480.609 129.824 480.721 130.184 480.945 130.408C481.185 130.616 481.585 130.72 482.145 130.72H483.825V133H481.665C480.433 133 479.489 132.712 478.833 132.136C478.177 131.56 477.849 130.624 477.849 129.328V122.008H476.289V119.776H477.849V116.488H480.609V119.776H483.825V122.008H480.609ZM489.083 115.24V133H486.347V115.24H489.083ZM504.579 119.776L496.467 139.216H493.635L496.323 132.784L491.115 119.776H494.163L497.883 129.856L501.747 119.776H504.579ZM507.748 133.168C507.252 133.168 506.836 133 506.5 132.664C506.164 132.328 505.996 131.912 505.996 131.416C505.996 130.92 506.164 130.504 506.5 130.168C506.836 129.832 507.252 129.664 507.748 129.664C508.228 129.664 508.636 129.832 508.972 130.168C509.308 130.504 509.476 130.92 509.476 131.416C509.476 131.912 509.308 132.328 508.972 132.664C508.636 133 508.228 133.168 507.748 133.168Z" fill="#BCB9B9"/>
</svg>
